solid CATIA STL
  facet normal -9.599527e-001  1.831435e-001 -2.120128e-001
    outer loop
      vertex -1.500000e+001  2.509704e+001  2.003142e+000
      vertex -1.470711e+001  2.657420e+001  1.953000e+000
      vertex -1.491902e+001  2.506271e+001  1.606829e+000
    endloop
  endfacet
  facet normal -9.210096e-001  1.707335e-001 -3.501305e-001
    outer loop
      vertex -1.500000e+001  2.509704e+001  2.003142e+000
      vertex -1.500000e+001  2.611963e+001  2.501787e+000
      vertex -1.470711e+001  2.657420e+001  1.953000e+000
    endloop
  endfacet
  facet normal -9.056505e-001  3.938355e-001 -1.571325e-001
    outer loop
      vertex -1.500000e+001  2.611963e+001  2.501787e+000
      vertex -1.470711e+001  2.720677e+001  3.538469e+000
      vertex -1.470711e+001  2.657420e+001  1.953000e+000
    endloop
  endfacet
  facet normal -3.489731e-001  8.657978e-001 -3.586252e-001
    outer loop
      vertex -1.470711e+001  2.657420e+001  1.953000e+000
      vertex -1.400000e+001  2.750000e+001  3.500000e+000
      vertex -1.400000e+001  2.676777e+001  1.732233e+000
    endloop
  endfacet
  facet normal -3.704821e-001  3.941175e-001 -8.410794e-001
    outer loop
      vertex -1.470711e+001  2.657420e+001  1.953000e+000
      vertex -1.400000e+001  2.676777e+001  1.732233e+000
      vertex -1.437775e+001  2.500818e+001  1.074109e+000
    endloop
  endfacet
  facet normal -9.078202e-001  3.838495e-001  1.688848e-001
    outer loop
      vertex -1.500000e+001  2.649814e+001  3.574667e+000
      vertex -1.470711e+001  2.651933e+001  5.100926e+000
      vertex -1.470711e+001  2.720677e+001  3.538469e+000
    endloop
  endfacet
  facet normal -9.184918e-001  3.729129e-001 -1.315634e-001
    outer loop
      vertex -1.500000e+001  2.649814e+001  3.574667e+000
      vertex -1.470711e+001  2.720677e+001  3.538469e+000
      vertex -1.500000e+001  2.611963e+001  2.501787e+000
    endloop
  endfacet
  facet normal -3.406349e-001  8.686275e-001  3.597973e-001
    outer loop
      vertex -1.470711e+001  2.720677e+001  3.538469e+000
      vertex -1.400000e+001  2.676777e+001  5.267767e+000
      vertex -1.400000e+001  2.750000e+001  3.500000e+000
    endloop
  endfacet
  facet normal -3.756396e-001  8.607829e-001 -3.434352e-001
    outer loop
      vertex -1.470711e+001  2.720677e+001  3.538469e+000
      vertex -1.400000e+001  2.750000e+001  3.500000e+000
      vertex -1.470711e+001  2.657420e+001  1.953000e+000
    endloop
  endfacet
  facet normal -3.845765e-001  8.449283e-001  3.717486e-001
    outer loop
      vertex -1.470711e+001  2.651933e+001  5.100926e+000
      vertex -1.400000e+001  2.676777e+001  5.267767e+000
      vertex -1.470711e+001  2.720677e+001  3.538469e+000
    endloop
  endfacet
  facet normal -9.763982e-001  7.489053e-002  2.025784e-001
    outer loop
      vertex -1.500000e+001  2.494772e+001  4.999089e+000
      vertex -1.491444e+001  2.496680e+001  5.404444e+000
      vertex -1.500000e+001  2.601483e+001  4.604594e+000
    endloop
  endfacet
  facet normal -1.704353e-001  3.770843e-001 -9.103621e-001
    outer loop
      vertex -1.400000e+001  2.500000e+001  1.000000e+000
      vertex -1.437775e+001  2.500818e+001  1.074109e+000
      vertex -1.400000e+001  2.676777e+001  1.732233e+000
    endloop
  endfacet
  facet normal -4.990390e-001  3.419313e-001 -7.962682e-001
    outer loop
      vertex -1.470711e+001  2.657420e+001  1.953000e+000
      vertex -1.437775e+001  2.500818e+001  1.074109e+000
      vertex -1.469910e+001  2.503074e+001  1.285192e+000
    endloop
  endfacet
  facet normal -7.900860e-001  2.399598e-001 -5.640774e-001
    outer loop
      vertex -1.491902e+001  2.506271e+001  1.606829e+000
      vertex -1.470711e+001  2.657420e+001  1.953000e+000
      vertex -1.469910e+001  2.503074e+001  1.285192e+000
    endloop
  endfacet
  facet normal -1.810100e-001  3.763620e-001  9.086182e-001
    outer loop
      vertex -1.400000e+001  2.500000e+001  6.000000e+000
      vertex -1.400000e+001  2.676777e+001  5.267767e+000
      vertex -1.437469e+001  2.499568e+001  5.927147e+000
    endloop
  endfacet
  facet normal -3.390748e-001  3.902103e-001  8.560165e-001
    outer loop
      vertex -1.437469e+001  2.499568e+001  5.927147e+000
      vertex -1.400000e+001  2.676777e+001  5.267767e+000
      vertex -1.470711e+001  2.651933e+001  5.100926e+000
    endloop
  endfacet
  facet normal -5.256013e-001  3.140628e-001  7.906377e-001
    outer loop
      vertex -1.437469e+001  2.499568e+001  5.927147e+000
      vertex -1.470711e+001  2.651933e+001  5.100926e+000
      vertex -1.469495e+001  2.498370e+001  5.719002e+000
    endloop
  endfacet
  facet normal -7.802635e-001  3.379551e-001  5.262842e-001
    outer loop
      vertex -1.491444e+001  2.496680e+001  5.404444e+000
      vertex -1.469495e+001  2.498370e+001  5.719002e+000
      vertex -1.500000e+001  2.601483e+001  4.604594e+000
    endloop
  endfacet
  facet normal -9.103159e-001  1.483244e-001  3.864256e-001
    outer loop
      vertex -1.500000e+001  2.601483e+001  4.604594e+000
      vertex -1.469495e+001  2.498370e+001  5.719002e+000
      vertex -1.470711e+001  2.651933e+001  5.100926e+000
    endloop
  endfacet
  facet normal -9.157371e-001  3.637207e-001  1.706834e-001
    outer loop
      vertex -1.500000e+001  2.601483e+001  4.604594e+000
      vertex -1.470711e+001  2.651933e+001  5.100926e+000
      vertex -1.500000e+001  2.649814e+001  3.574667e+000
    endloop
  endfacet
  facet normal  5.420802e-003  2.587998e-003  9.999819e-001
    outer loop
      vertex  1.400000e+001 -7.431683e+000  7.367448e+000
      vertex  1.400000e+001  8.510029e+000  7.326190e+000
      vertex -1.400000e+001  0.000000e+000  7.500000e+000
    endloop
  endfacet
  facet normal  0.000000e+000 -8.904179e-002  9.960279e-001
    outer loop
      vertex -1.400000e+001 -2.500000e+001  6.000000e+000
      vertex  1.400000e+001 -2.500000e+001  6.000000e+000
      vertex -1.400000e+001 -1.224871e+001  7.139926e+000
    endloop
  endfacet
  facet normal  5.248896e-003 -7.760026e-002  9.969708e-001
    outer loop
      vertex -1.400000e+001 -1.224871e+001  7.139926e+000
      vertex  1.400000e+001 -2.500000e+001  6.000000e+000
      vertex  1.400000e+001 -7.431683e+000  7.367448e+000
    endloop
  endfacet
  facet normal -3.067118e-003 -2.938407e-002  9.995635e-001
    outer loop
      vertex -1.400000e+001 -1.224871e+001  7.139926e+000
      vertex  1.400000e+001 -7.431683e+000  7.367448e+000
      vertex -1.400000e+001  0.000000e+000  7.500000e+000
    endloop
  endfacet
  facet normal  -0.000000e+000  8.016522e-002  9.967816e-001
    outer loop
      vertex  1.400000e+001  2.500000e+001  6.000000e+000
      vertex -1.400000e+001  2.500000e+001  6.000000e+000
      vertex  1.400000e+001  8.510029e+000  7.326190e+000
    endloop
  endfacet
  facet normal  4.464382e-003  8.769394e-002  9.961374e-001
    outer loop
      vertex  1.400000e+001  8.510029e+000  7.326190e+000
      vertex -1.400000e+001  2.500000e+001  6.000000e+000
      vertex -1.400000e+001  1.168082e+001  7.172540e+000
    endloop
  endfacet
  facet normal -2.311955e-003  2.802288e-002  9.996046e-001
    outer loop
      vertex  1.400000e+001  8.510029e+000  7.326190e+000
      vertex -1.400000e+001  1.168082e+001  7.172540e+000
      vertex -1.400000e+001  0.000000e+000  7.500000e+000
    endloop
  endfacet
  facet normal  0.000000e+000  3.826834e-001  9.238795e-001
    outer loop
      vertex -1.400000e+001  2.500000e+001  6.000000e+000
      vertex  1.400000e+001  2.500000e+001  6.000000e+000
      vertex -1.400000e+001  2.676777e+001  5.267767e+000
    endloop
  endfacet
  facet normal  -0.000000e+000  3.826834e-001  9.238795e-001
    outer loop
      vertex -1.400000e+001  2.676777e+001  5.267767e+000
      vertex  1.400000e+001  2.500000e+001  6.000000e+000
      vertex  1.400000e+001  2.676777e+001  5.267767e+000
    endloop
  endfacet
  facet normal  0.000000e+000  9.238795e-001  3.826834e-001
    outer loop
      vertex -1.400000e+001  2.676777e+001  5.267767e+000
      vertex  1.400000e+001  2.676777e+001  5.267767e+000
      vertex -1.400000e+001  2.750000e+001  3.500000e+000
    endloop
  endfacet
  facet normal  -0.000000e+000  9.238795e-001  3.826834e-001
    outer loop
      vertex -1.400000e+001  2.750000e+001  3.500000e+000
      vertex  1.400000e+001  2.676777e+001  5.267767e+000
      vertex  1.400000e+001  2.750000e+001  3.500000e+000
    endloop
  endfacet
  facet normal  0.000000e+000  9.238795e-001 -3.826834e-001
    outer loop
      vertex -1.400000e+001  2.750000e+001  3.500000e+000
      vertex  1.400000e+001  2.750000e+001  3.500000e+000
      vertex -1.400000e+001  2.676777e+001  1.732233e+000
    endloop
  endfacet
  facet normal  0.000000e+000  9.238795e-001 -3.826834e-001
    outer loop
      vertex -1.400000e+001  2.676777e+001  1.732233e+000
      vertex  1.400000e+001  2.750000e+001  3.500000e+000
      vertex  1.400000e+001  2.676777e+001  1.732233e+000
    endloop
  endfacet
  facet normal  0.000000e+000  3.826834e-001 -9.238795e-001
    outer loop
      vertex -1.400000e+001  2.676777e+001  1.732233e+000
      vertex  1.400000e+001  2.676777e+001  1.732233e+000
      vertex -1.400000e+001  2.500000e+001  1.000000e+000
    endloop
  endfacet
  facet normal  0.000000e+000  3.826834e-001 -9.238795e-001
    outer loop
      vertex -1.400000e+001  2.500000e+001  1.000000e+000
      vertex  1.400000e+001  2.676777e+001  1.732233e+000
      vertex  1.400000e+001  2.500000e+001  1.000000e+000
    endloop
  endfacet
  facet normal  0.000000e+000  5.253157e-002 -9.986192e-001
    outer loop
      vertex -1.400000e+001  1.749724e+000  3.618085e+000
      vertex  1.400000e+001 -1.000000e+001  3.000000e+000
      vertex -1.400000e+001 -1.000000e+001  3.000000e+000
    endloop
  endfacet
  facet normal -1.180202e-003  4.972664e-002 -9.987622e-001
    outer loop
      vertex  1.400000e+001 -1.000000e+001  3.000000e+000
      vertex -1.400000e+001  1.749724e+000  3.618085e+000
      vertex  1.400000e+001  2.356969e+000  3.615232e+000
    endloop
  endfacet
  facet normal  1.087960e-003 -5.485677e-002 -9.984936e-001
    outer loop
      vertex  1.400000e+001  2.356969e+000  3.615232e+000
      vertex -1.400000e+001  1.749724e+000  3.618085e+000
      vertex -1.400000e+001  1.300000e+001  3.000000e+000
    endloop
  endfacet
  facet normal  0.000000e+000 -5.770974e-002 -9.983333e-001
    outer loop
      vertex  1.400000e+001  2.356969e+000  3.615232e+000
      vertex -1.400000e+001  1.300000e+001  3.000000e+000
      vertex  1.400000e+001  1.300000e+001  3.000000e+000
    endloop
  endfacet
  facet normal  -0.000000e+000 -1.643990e-001 -9.863939e-001
    outer loop
      vertex  1.400000e+001  1.300000e+001  3.000000e+000
      vertex -1.400000e+001  1.300000e+001  3.000000e+000
      vertex -1.400000e+001  2.500000e+001  1.000000e+000
    endloop
  endfacet
  facet normal  0.000000e+000 -1.643990e-001 -9.863939e-001
    outer loop
      vertex  1.400000e+001  1.300000e+001  3.000000e+000
      vertex -1.400000e+001  2.500000e+001  1.000000e+000
      vertex  1.400000e+001  2.500000e+001  1.000000e+000
    endloop
  endfacet
  facet normal  0.000000e+000  9.659258e-001 -2.588193e-001
    outer loop
      vertex -1.400000e+001 -1.000000e+001  3.000000e+000
      vertex  1.400000e+001 -1.000000e+001  3.000000e+000
      vertex -1.400000e+001 -1.040192e+001  1.500000e+000
    endloop
  endfacet
  facet normal  0.000000e+000  9.659258e-001 -2.588193e-001
    outer loop
      vertex -1.400000e+001 -1.040192e+001  1.500000e+000
      vertex  1.400000e+001 -1.000000e+001  3.000000e+000
      vertex  1.400000e+001 -1.040192e+001  1.500000e+000
    endloop
  endfacet
  facet normal  0.000000e+000  7.071068e-001 -7.071066e-001
    outer loop
      vertex -1.400000e+001 -1.040192e+001  1.500000e+000
      vertex  1.400000e+001 -1.040192e+001  1.500000e+000
      vertex -1.400000e+001 -1.150000e+001  4.019238e-001
    endloop
  endfacet
  facet normal  0.000000e+000  7.071068e-001 -7.071066e-001
    outer loop
      vertex -1.400000e+001 -1.150000e+001  4.019238e-001
      vertex  1.400000e+001 -1.040192e+001  1.500000e+000
      vertex  1.400000e+001 -1.150000e+001  4.019238e-001
    endloop
  endfacet
  facet normal  0.000000e+000  2.588190e-001 -9.659258e-001
    outer loop
      vertex -1.400000e+001 -1.150000e+001  4.019238e-001
      vertex  1.400000e+001 -1.150000e+001  4.019238e-001
      vertex -1.400000e+001 -1.300000e+001  0.000000e+000
    endloop
  endfacet
  facet normal  0.000000e+000  2.588190e-001 -9.659258e-001
    outer loop
      vertex -1.400000e+001 -1.300000e+001  0.000000e+000
      vertex  1.400000e+001 -1.150000e+001  4.019238e-001
      vertex  1.400000e+001 -1.300000e+001  0.000000e+000
    endloop
  endfacet
  facet normal  0.000000e+000  0.000000e+000 -1.000000e+000
    outer loop
      vertex -1.400000e+001 -2.500000e+001  0.000000e+000
      vertex -1.400000e+001 -1.300000e+001  0.000000e+000
      vertex  1.400000e+001 -2.500000e+001  0.000000e+000
    endloop
  endfacet
  facet normal  0.000000e+000  0.000000e+000 -1.000000e+000
    outer loop
      vertex  1.400000e+001 -2.500000e+001  0.000000e+000
      vertex -1.400000e+001 -1.300000e+001  0.000000e+000
      vertex  1.400000e+001 -1.300000e+001  0.000000e+000
    endloop
  endfacet
  facet normal  -0.000000e+000 -3.090171e-001 -9.510565e-001
    outer loop
      vertex -1.400000e+001 -2.500000e+001  0.000000e+000
      vertex  1.400000e+001 -2.500000e+001  0.000000e+000
      vertex -1.400000e+001 -2.676336e+001  5.729490e-001
    endloop
  endfacet
  facet normal  0.000000e+000 -3.090171e-001 -9.510565e-001
    outer loop
      vertex -1.400000e+001 -2.676336e+001  5.729490e-001
      vertex  1.400000e+001 -2.500000e+001  0.000000e+000
      vertex  1.400000e+001 -2.676336e+001  5.729490e-001
    endloop
  endfacet
  facet normal  -0.000000e+000 -8.090166e-001 -5.877857e-001
    outer loop
      vertex -1.400000e+001 -2.676336e+001  5.729490e-001
      vertex  1.400000e+001 -2.676336e+001  5.729490e-001
      vertex -1.400000e+001 -2.785317e+001  2.072949e+000
    endloop
  endfacet
  facet normal  0.000000e+000 -8.090166e-001 -5.877857e-001
    outer loop
      vertex -1.400000e+001 -2.785317e+001  2.072949e+000
      vertex  1.400000e+001 -2.676336e+001  5.729490e-001
      vertex  1.400000e+001 -2.785317e+001  2.072949e+000
    endloop
  endfacet
  facet normal  0.000000e+000 -1.000000e+000  0.000000e+000
    outer loop
      vertex -1.400000e+001 -2.785317e+001  2.072949e+000
      vertex  1.400000e+001 -2.785317e+001  2.072949e+000
      vertex -1.400000e+001 -2.785317e+001  3.927051e+000
    endloop
  endfacet
  facet normal  0.000000e+000 -1.000000e+000  0.000000e+000
    outer loop
      vertex -1.400000e+001 -2.785317e+001  3.927051e+000
      vertex  1.400000e+001 -2.785317e+001  2.072949e+000
      vertex  1.400000e+001 -2.785317e+001  3.927051e+000
    endloop
  endfacet
  facet normal  0.000000e+000 -8.090166e-001  5.877857e-001
    outer loop
      vertex -1.400000e+001 -2.785317e+001  3.927051e+000
      vertex  1.400000e+001 -2.785317e+001  3.927051e+000
      vertex -1.400000e+001 -2.676336e+001  5.427051e+000
    endloop
  endfacet
  facet normal  0.000000e+000 -8.090166e-001  5.877857e-001
    outer loop
      vertex -1.400000e+001 -2.676336e+001  5.427051e+000
      vertex  1.400000e+001 -2.785317e+001  3.927051e+000
      vertex  1.400000e+001 -2.676336e+001  5.427051e+000
    endloop
  endfacet
  facet normal  0.000000e+000 -3.090170e-001  9.510565e-001
    outer loop
      vertex -1.400000e+001 -2.676336e+001  5.427051e+000
      vertex  1.400000e+001 -2.676336e+001  5.427051e+000
      vertex -1.400000e+001 -2.500000e+001  6.000000e+000
    endloop
  endfacet
  facet normal  0.000000e+000 -3.090170e-001  9.510565e-001
    outer loop
      vertex -1.400000e+001 -2.500000e+001  6.000000e+000
      vertex  1.400000e+001 -2.676336e+001  5.427051e+000
      vertex  1.400000e+001 -2.500000e+001  6.000000e+000
    endloop
  endfacet
  facet normal -9.999999e-001  0.000000e+000  0.000000e+000
    outer loop
      vertex -1.500000e+001 -1.120049e+001  3.872796e+000
      vertex -1.500000e+001 -2.614045e+001  4.642976e+000
      vertex -1.500000e+001  1.950891e+000  4.617524e+000
    endloop
  endfacet
  facet normal -9.999999e-001  0.000000e+000  0.000000e+000
    outer loop
      vertex -1.500000e+001  1.950891e+000  4.617524e+000
      vertex -1.500000e+001 -2.614045e+001  4.642976e+000
      vertex -1.500000e+001 -2.494616e+001  4.999275e+000
    endloop
  endfacet
  facet normal -1.000000e+000  0.000000e+000  0.000000e+000
    outer loop
      vertex -1.500000e+001  1.950891e+000  4.617524e+000
      vertex -1.500000e+001 -2.494616e+001  4.999275e+000
      vertex -1.500000e+001  2.494772e+001  4.999089e+000
    endloop
  endfacet
  facet normal -1.000000e+000  0.000000e+000  0.000000e+000
    outer loop
      vertex -1.500000e+001  2.494772e+001  4.999089e+000
      vertex -1.500000e+001 -2.494616e+001  4.999275e+000
      vertex -1.500000e+001 -8.493177e+000  6.326044e+000
    endloop
  endfacet
  facet normal -1.000000e+000  0.000000e+000  0.000000e+000
    outer loop
      vertex -1.500000e+001  2.494772e+001  4.999089e+000
      vertex -1.500000e+001 -8.493177e+000  6.326044e+000
      vertex -1.500000e+001  7.416422e+000  6.367356e+000
    endloop
  endfacet
  facet normal -9.999999e-001  -0.000000e+000  0.000000e+000
    outer loop
      vertex -1.500000e+001 -2.614045e+001  4.642976e+000
      vertex -1.500000e+001 -1.120049e+001  3.872796e+000
      vertex -1.500000e+001 -2.689188e+001  3.648677e+000
    endloop
  endfacet
  facet normal -1.000000e+000  0.000000e+000  0.000000e+000
    outer loop
      vertex -1.500000e+001 -2.689188e+001  3.648677e+000
      vertex -1.500000e+001 -1.120049e+001  3.872796e+000
      vertex -1.500000e+001 -1.104932e+001  2.558589e+000
    endloop
  endfacet
  facet normal -1.000000e+000  -0.000000e+000  0.000000e+000
    outer loop
      vertex -1.500000e+001 -2.689188e+001  3.648677e+000
      vertex -1.500000e+001 -1.104932e+001  2.558589e+000
      vertex -1.500000e+001 -2.690866e+001  2.402485e+000
    endloop
  endfacet
  facet normal -1.000000e+000  0.000000e+000  0.000000e+000
    outer loop
      vertex -1.500000e+001 -2.690866e+001  2.402485e+000
      vertex -1.500000e+001 -1.104932e+001  2.558589e+000
      vertex -1.500000e+001 -1.175156e+001  1.437498e+000
    endloop
  endfacet
  facet normal -1.000000e+000  -0.000000e+000  0.000000e+000
    outer loop
      vertex -1.500000e+001 -2.690866e+001  2.402485e+000
      vertex -1.500000e+001 -1.175156e+001  1.437498e+000
      vertex -1.500000e+001 -2.618427e+001  1.388319e+000
    endloop
  endfacet
  facet normal -1.000000e+000  0.000000e+000  0.000000e+000
    outer loop
      vertex -1.500000e+001 -2.618427e+001  1.388319e+000
      vertex -1.500000e+001 -1.175156e+001  1.437498e+000
      vertex -1.500000e+001 -1.300000e+001  1.000000e+000
    endloop
  endfacet
  facet normal -1.000000e+000  0.000000e+000  0.000000e+000
    outer loop
      vertex -1.500000e+001 -2.618427e+001  1.388319e+000
      vertex -1.500000e+001 -1.300000e+001  1.000000e+000
      vertex -1.500000e+001 -2.500000e+001  1.000000e+000
    endloop
  endfacet
  facet normal -1.000000e+000  0.000000e+000  0.000000e+000
    outer loop
      vertex -1.500000e+001  2.494772e+001  4.999089e+000
      vertex -1.500000e+001  2.601483e+001  4.604594e+000
      vertex -1.500000e+001  1.950891e+000  4.617524e+000
    endloop
  endfacet
  facet normal -1.000000e+000  0.000000e+000  0.000000e+000
    outer loop
      vertex -1.500000e+001  1.950891e+000  4.617524e+000
      vertex -1.500000e+001  2.601483e+001  4.604594e+000
      vertex -1.500000e+001  2.649814e+001  3.574667e+000
    endloop
  endfacet
  facet normal -1.000000e+000  0.000000e+000  0.000000e+000
    outer loop
      vertex -1.500000e+001  1.950891e+000  4.617524e+000
      vertex -1.500000e+001  2.649814e+001  3.574667e+000
      vertex -1.500000e+001  1.358565e+001  3.941239e+000
    endloop
  endfacet
  facet normal -1.000000e+000  0.000000e+000  0.000000e+000
    outer loop
      vertex -1.500000e+001  1.358565e+001  3.941239e+000
      vertex -1.500000e+001  2.649814e+001  3.574667e+000
      vertex -1.500000e+001  2.611963e+001  2.501787e+000
    endloop
  endfacet
  facet normal -1.000000e+000  -0.000000e+000  0.000000e+000
    outer loop
      vertex -1.500000e+001  1.358565e+001  3.941239e+000
      vertex -1.500000e+001  2.611963e+001  2.501787e+000
      vertex -1.500000e+001  2.509704e+001  2.003142e+000
    endloop
  endfacet
  facet normal -9.243829e-001 -2.231763e-002 -3.808125e-001
    outer loop
      vertex -1.470711e+001  1.357353e+001  3.230981e+000
      vertex -1.470711e+001  1.982186e+000  3.910295e+000
      vertex -1.500000e+001  1.358565e+001  3.941239e+000
    endloop
  endfacet
  facet normal -9.233245e-001 -2.228408e-002 -3.833737e-001
    outer loop
      vertex -1.500000e+001  1.358565e+001  3.941239e+000
      vertex -1.470711e+001  1.982186e+000  3.910295e+000
      vertex -1.500000e+001  1.950891e+000  4.617524e+000
    endloop
  endfacet
  facet normal -3.549405e-001  2.215307e-001 -9.082628e-001
    outer loop
      vertex -1.408272e+001 -1.000343e+001  3.003081e+000
      vertex -1.454358e+001 -1.016429e+001  3.143942e+000
      vertex -1.470711e+001 -9.664873e+000  3.329660e+000
    endloop
  endfacet
  facet normal -7.087058e-001  3.005466e-002 -7.048637e-001
    outer loop
      vertex -1.454358e+001 -1.016429e+001  3.143942e+000
      vertex -1.487822e+001 -1.056543e+001  3.463306e+000
      vertex -1.470711e+001 -9.664873e+000  3.329660e+000
    endloop
  endfacet
  facet normal -5.504756e-001 -1.394082e-001 -8.231294e-001
    outer loop
      vertex -1.437775e+001  2.500818e+001  1.074109e+000
      vertex -1.470711e+001  1.357353e+001  3.230981e+000
      vertex -1.469910e+001  2.503074e+001  1.285192e+000
    endloop
  endfacet
  facet normal -8.261634e-001 -9.377599e-002 -5.555720e-001
    outer loop
      vertex -1.469910e+001  2.503074e+001  1.285192e+000
      vertex -1.470711e+001  1.357353e+001  3.230981e+000
      vertex -1.491902e+001  2.506271e+001  1.606829e+000
    endloop
  endfacet
  facet normal -9.225942e-001 -7.062923e-002 -3.792509e-001
    outer loop
      vertex -1.470711e+001  1.357353e+001  3.230981e+000
      vertex -1.500000e+001  1.358565e+001  3.941239e+000
      vertex -1.491902e+001  2.506271e+001  1.606829e+000
    endloop
  endfacet
  facet normal -9.797757e-001 -3.322177e-002 -1.973218e-001
    outer loop
      vertex -1.491902e+001  2.506271e+001  1.606829e+000
      vertex -1.500000e+001  1.358565e+001  3.941239e+000
      vertex -1.500000e+001  2.509704e+001  2.003142e+000
    endloop
  endfacet
  facet normal -5.506170e-002  6.387464e-001 -7.674446e-001
    outer loop
      vertex -1.408272e+001 -1.000343e+001  3.003081e+000
      vertex -1.470711e+001 -9.664873e+000  3.329660e+000
      vertex -1.400000e+001 -1.000000e+001  3.000000e+000
    endloop
  endfacet
  facet normal -4.042960e-001  4.553997e-002 -9.134938e-001
    outer loop
      vertex -1.400000e+001 -1.000000e+001  3.000000e+000
      vertex -1.470711e+001 -9.664873e+000  3.329660e+000
      vertex -1.470711e+001  1.982186e+000  3.910295e+000
    endloop
  endfacet
  facet normal -3.677059e-001  4.885133e-002 -9.286582e-001
    outer loop
      vertex -1.400000e+001 -1.000000e+001  3.000000e+000
      vertex -1.470711e+001  1.982186e+000  3.910295e+000
      vertex -1.400000e+001  1.749724e+000  3.618085e+000
    endloop
  endfacet
  facet normal -3.964013e-001 -5.371204e-002 -9.165048e-001
    outer loop
      vertex -1.400000e+001  1.749724e+000  3.618085e+000
      vertex -1.470711e+001  1.982186e+000  3.910295e+000
      vertex -1.470711e+001  1.357353e+001  3.230981e+000
    endloop
  endfacet
  facet normal -3.475519e-001 -5.143708e-002 -9.362488e-001
    outer loop
      vertex -1.400000e+001  1.749724e+000  3.618085e+000
      vertex -1.470711e+001  1.357353e+001  3.230981e+000
      vertex -1.400000e+001  1.300000e+001  3.000000e+000
    endloop
  endfacet
  facet normal -4.191599e-001 -1.566156e-001 -8.943022e-001
    outer loop
      vertex -1.400000e+001  1.300000e+001  3.000000e+000
      vertex -1.470711e+001  1.357353e+001  3.230981e+000
      vertex -1.437775e+001  2.500818e+001  1.074109e+000
    endloop
  endfacet
  facet normal -1.933534e-001 -1.612966e-001 -9.677798e-001
    outer loop
      vertex -1.400000e+001  1.300000e+001  3.000000e+000
      vertex -1.437775e+001  2.500818e+001  1.074109e+000
      vertex -1.400000e+001  2.500000e+001  1.000000e+000
    endloop
  endfacet
  facet normal -9.240329e-001  1.903562e-002 -3.818386e-001
    outer loop
      vertex -1.470711e+001  1.982186e+000  3.910295e+000
      vertex -1.470711e+001 -9.664873e+000  3.329660e+000
      vertex -1.500000e+001  1.950891e+000  4.617524e+000
    endloop
  endfacet
  facet normal -7.684324e-001  5.134560e-002 -6.378677e-001
    outer loop
      vertex -1.500000e+001  1.950891e+000  4.617524e+000
      vertex -1.470711e+001 -9.664873e+000  3.329660e+000
      vertex -1.487822e+001 -1.056543e+001  3.463306e+000
    endloop
  endfacet
  facet normal -9.644947e-001  1.493148e-002 -2.636797e-001
    outer loop
      vertex -1.500000e+001  1.950891e+000  4.617524e+000
      vertex -1.487822e+001 -1.056543e+001  3.463306e+000
      vertex -1.500000e+001 -1.120049e+001  3.872796e+000
    endloop
  endfacet
  facet normal -5.324491e-001 -2.525491e-001  8.079090e-001
    outer loop
      vertex -1.470711e+001 -2.654366e+001  5.223855e+000
      vertex -1.437341e+001 -2.499570e+001  5.927662e+000
      vertex -1.469333e+001 -2.498371e+001  5.720569e+000
    endloop
  endfacet
  facet normal -9.770354e-001 -6.091556e-002  2.041843e-001
    outer loop
      vertex -1.500000e+001 -2.494616e+001  4.999275e+000
      vertex -1.500000e+001 -2.614045e+001  4.642976e+000
      vertex -1.491371e+001 -2.496643e+001  5.406133e+000
    endloop
  endfacet
  facet normal -3.662468e-001 -2.899273e-001 -8.841976e-001
    outer loop
      vertex -1.470711e+001 -2.500000e+001  2.928932e-001
      vertex -1.400000e+001 -2.500000e+001  0.000000e+000
      vertex -1.470711e+001 -2.660297e+001  8.185039e-001
    endloop
  endfacet
  facet normal -3.716814e-001 -2.868792e-001 -8.829232e-001
    outer loop
      vertex -1.470711e+001 -2.660297e+001  8.185039e-001
      vertex -1.400000e+001 -2.500000e+001  0.000000e+000
      vertex -1.400000e+001 -2.676336e+001  5.729490e-001
    endloop
  endfacet
  facet normal -3.604437e-001 -7.590389e-001 -5.421626e-001
    outer loop
      vertex -1.470711e+001 -2.660297e+001  8.185039e-001
      vertex -1.400000e+001 -2.676336e+001  5.729490e-001
      vertex -1.470711e+001 -2.758347e+001  2.191231e+000
    endloop
  endfacet
  facet normal -3.768871e-001 -7.493591e-001 -5.444419e-001
    outer loop
      vertex -1.470711e+001 -2.758347e+001  2.191231e+000
      vertex -1.400000e+001 -2.676336e+001  5.729490e-001
      vertex -1.400000e+001 -2.785317e+001  2.072949e+000
    endloop
  endfacet
  facet normal -3.545036e-001 -9.349700e-001  1.258626e-002
    outer loop
      vertex -1.470711e+001 -2.758347e+001  2.191231e+000
      vertex -1.400000e+001 -2.785317e+001  2.072949e+000
      vertex -1.470711e+001 -2.756076e+001  3.878019e+000
    endloop
  endfacet
  facet normal -3.821401e-001 -9.241044e-001  0.000000e+000
    outer loop
      vertex -1.470711e+001 -2.756076e+001  3.878019e+000
      vertex -1.400000e+001 -2.785317e+001  2.072949e+000
      vertex -1.400000e+001 -2.785317e+001  3.927051e+000
    endloop
  endfacet
  facet normal -3.484238e-001 -7.478045e-001  5.651453e-001
    outer loop
      vertex -1.470711e+001 -2.756076e+001  3.878019e+000
      vertex -1.400000e+001 -2.785317e+001  3.927051e+000
      vertex -1.470711e+001 -2.654366e+001  5.223855e+000
    endloop
  endfacet
  facet normal -3.874382e-001 -7.458289e-001  5.418771e-001
    outer loop
      vertex -1.470711e+001 -2.654366e+001  5.223855e+000
      vertex -1.400000e+001 -2.785317e+001  3.927051e+000
      vertex -1.400000e+001 -2.676336e+001  5.427051e+000
    endloop
  endfacet
  facet normal -3.527578e-001 -3.232090e-001  8.781217e-001
    outer loop
      vertex -1.470711e+001 -2.654366e+001  5.223855e+000
      vertex -1.400000e+001 -2.676336e+001  5.427051e+000
      vertex -1.437341e+001 -2.499570e+001  5.927662e+000
    endloop
  endfacet
  facet normal -1.845689e-001 -3.037080e-001  9.347170e-001
    outer loop
      vertex -1.437341e+001 -2.499570e+001  5.927662e+000
      vertex -1.400000e+001 -2.676336e+001  5.427051e+000
      vertex -1.400000e+001 -2.500000e+001  6.000000e+000
    endloop
  endfacet
  facet normal -8.112389e-001 -1.708893e-001  5.591854e-001
    outer loop
      vertex -1.469333e+001 -2.498371e+001  5.720569e+000
      vertex -1.491371e+001 -2.496643e+001  5.406133e+000
      vertex -1.470711e+001 -2.654366e+001  5.223855e+000
    endloop
  endfacet
  facet normal -9.217139e-001 -1.614919e-001  3.526525e-001
    outer loop
      vertex -1.470711e+001 -2.654366e+001  5.223855e+000
      vertex -1.491371e+001 -2.496643e+001  5.406133e+000
      vertex -1.500000e+001 -2.614045e+001  4.642976e+000
    endloop
  endfacet
  facet normal -9.166909e-001 -3.187973e-001  2.409277e-001
    outer loop
      vertex -1.470711e+001 -2.654366e+001  5.223855e+000
      vertex -1.500000e+001 -2.614045e+001  4.642976e+000
      vertex -1.470711e+001 -2.756076e+001  3.878019e+000
    endloop
  endfacet
  facet normal -9.166909e-001 -3.187973e-001  2.409277e-001
    outer loop
      vertex -1.470711e+001 -2.756076e+001  3.878019e+000
      vertex -1.500000e+001 -2.614045e+001  4.642976e+000
      vertex -1.500000e+001 -2.689188e+001  3.648677e+000
    endloop
  endfacet
  facet normal -9.166909e-001 -3.995608e-001  5.378756e-003
    outer loop
      vertex -1.470711e+001 -2.756076e+001  3.878019e+000
      vertex -1.500000e+001 -2.689188e+001  3.648677e+000
      vertex -1.470711e+001 -2.758347e+001  2.191231e+000
    endloop
  endfacet
  facet normal -9.166906e-001 -3.995615e-001  5.379153e-003
    outer loop
      vertex -1.470711e+001 -2.758347e+001  2.191231e+000
      vertex -1.500000e+001 -2.689188e+001  3.648677e+000
      vertex -1.500000e+001 -2.690866e+001  2.402485e+000
    endloop
  endfacet
  facet normal -9.166906e-001 -3.251675e-001 -2.322591e-001
    outer loop
      vertex -1.470711e+001 -2.758347e+001  2.191231e+000
      vertex -1.500000e+001 -2.690866e+001  2.402485e+000
      vertex -1.470711e+001 -2.660297e+001  8.185039e-001
    endloop
  endfacet
  facet normal -9.166908e-001 -3.251673e-001 -2.322591e-001
    outer loop
      vertex -1.470711e+001 -2.660297e+001  8.185039e-001
      vertex -1.500000e+001 -2.690866e+001  2.402485e+000
      vertex -1.500000e+001 -2.618427e+001  1.388319e+000
    endloop
  endfacet
  facet normal -9.166907e-001 -1.245051e-001 -3.797060e-001
    outer loop
      vertex -1.470711e+001 -2.660297e+001  8.185039e-001
      vertex -1.500000e+001 -2.618427e+001  1.388319e+000
      vertex -1.470711e+001 -2.500000e+001  2.928932e-001
    endloop
  endfacet
  facet normal -9.166907e-001 -1.245051e-001 -3.797060e-001
    outer loop
      vertex -1.470711e+001 -2.500000e+001  2.928932e-001
      vertex -1.500000e+001 -2.618427e+001  1.388319e+000
      vertex -1.500000e+001 -2.500000e+001  1.000000e+000
    endloop
  endfacet
  facet normal -2.814652e-001  6.785196e-001 -6.785193e-001
    outer loop
      vertex -1.470711e+001 -1.131018e+001  8.850708e-001
      vertex -1.400000e+001 -1.040192e+001  1.500000e+000
      vertex -1.400000e+001 -1.150000e+001  4.019238e-001
    endloop
  endfacet
  facet normal -4.859689e-001  2.890399e-001 -8.247972e-001
    outer loop
      vertex -1.470711e+001 -1.131018e+001  8.850708e-001
      vertex -1.400000e+001 -1.150000e+001  4.019238e-001
      vertex -1.470711e+001 -1.300000e+001  2.928932e-001
    endloop
  endfacet
  facet normal -5.311506e-001  7.180390e-001 -4.497767e-001
    outer loop
      vertex -1.470711e+001 -1.035965e+001  2.402527e+000
      vertex -1.400000e+001 -1.040192e+001  1.500000e+000
      vertex -1.470711e+001 -1.131018e+001  8.850708e-001
    endloop
  endfacet
  facet normal -9.789495e-001  2.027654e-001  2.332415e-002
    outer loop
      vertex -1.500000e+001 -1.120049e+001  3.872796e+000
      vertex -1.487822e+001 -1.056543e+001  3.463306e+000
      vertex -1.500000e+001 -1.104932e+001  2.558589e+000
    endloop
  endfacet
  facet normal -3.714705e-001  2.402992e-001 -8.968087e-001
    outer loop
      vertex -1.400000e+001 -1.300000e+001  0.000000e+000
      vertex -1.470711e+001 -1.300000e+001  2.928932e-001
      vertex -1.400000e+001 -1.150000e+001  4.019238e-001
    endloop
  endfacet
  facet normal -4.962159e-002  9.647358e-001 -2.585004e-001
    outer loop
      vertex -1.400000e+001 -1.000000e+001  3.000000e+000
      vertex -1.400000e+001 -1.040192e+001  1.500000e+000
      vertex -1.408272e+001 -1.000343e+001  3.003081e+000
    endloop
  endfacet
  facet normal -2.771347e-001  9.248580e-001 -2.604495e-001
    outer loop
      vertex -1.408272e+001 -1.000343e+001  3.003081e+000
      vertex -1.400000e+001 -1.040192e+001  1.500000e+000
      vertex -1.470711e+001 -1.035965e+001  2.402527e+000
    endloop
  endfacet
  facet normal -3.685448e-001  9.157369e-001 -1.600022e-001
    outer loop
      vertex -1.408272e+001 -1.000343e+001  3.003081e+000
      vertex -1.470711e+001 -1.035965e+001  2.402527e+000
      vertex -1.454358e+001 -1.016429e+001  3.143942e+000
    endloop
  endfacet
  facet normal -8.209742e-001  5.420475e-001 -1.794041e-001
    outer loop
      vertex -1.487822e+001 -1.056543e+001  3.463306e+000
      vertex -1.454358e+001 -1.016429e+001  3.143942e+000
      vertex -1.500000e+001 -1.104932e+001  2.558589e+000
    endloop
  endfacet
  facet normal -9.086692e-001  4.069852e-001  9.318380e-002
    outer loop
      vertex -1.500000e+001 -1.104932e+001  2.558589e+000
      vertex -1.454358e+001 -1.016429e+001  3.143942e+000
      vertex -1.470711e+001 -1.035965e+001  2.402527e+000
    endloop
  endfacet
  facet normal -9.156823e-001  3.405994e-001 -2.133498e-001
    outer loop
      vertex -1.500000e+001 -1.104932e+001  2.558589e+000
      vertex -1.470711e+001 -1.035965e+001  2.402527e+000
      vertex -1.500000e+001 -1.175156e+001  1.437498e+000
    endloop
  endfacet
  facet normal -9.156821e-001  3.405997e-001 -2.133503e-001
    outer loop
      vertex -1.500000e+001 -1.175156e+001  1.437498e+000
      vertex -1.470711e+001 -1.035965e+001  2.402527e+000
      vertex -1.470711e+001 -1.131018e+001  8.850708e-001
    endloop
  endfacet
  facet normal -9.156820e-001  1.329168e-001 -3.792883e-001
    outer loop
      vertex -1.500000e+001 -1.175156e+001  1.437498e+000
      vertex -1.470711e+001 -1.131018e+001  8.850708e-001
      vertex -1.500000e+001 -1.300000e+001  1.000000e+000
    endloop
  endfacet
  facet normal -9.156821e-001  1.329169e-001 -3.792882e-001
    outer loop
      vertex -1.500000e+001 -1.300000e+001  1.000000e+000
      vertex -1.470711e+001 -1.131018e+001  8.850708e-001
      vertex -1.470711e+001 -1.300000e+001  2.928932e-001
    endloop
  endfacet
  facet normal -2.937310e-001  2.678681e-002  9.555128e-001
    outer loop
      vertex -1.470711e+001  7.441700e+000  7.074010e+000
      vertex -1.400000e+001  0.000000e+000  7.500000e+000
      vertex -1.400000e+001  1.168082e+001  7.172540e+000
    endloop
  endfacet
  facet normal -9.782727e-001 -1.666438e-002  2.066515e-001
    outer loop
      vertex -1.500000e+001 -2.494616e+001  4.999275e+000
      vertex -1.491371e+001 -2.496643e+001  5.406133e+000
      vertex -1.500000e+001 -8.493177e+000  6.326044e+000
    endloop
  endfacet
  facet normal -9.784657e-001  1.606085e-002  2.057840e-001
    outer loop
      vertex -1.500000e+001  2.494772e+001  4.999089e+000
      vertex -1.500000e+001  7.416422e+000  6.367356e+000
      vertex -1.491444e+001  2.496680e+001  5.404444e+000
    endloop
  endfacet
  facet normal -5.439566e-001 -6.711829e-002  8.364248e-001
    outer loop
      vertex -1.470711e+001 -8.522119e+000  7.032558e+000
      vertex -1.469333e+001 -2.498371e+001  5.720569e+000
      vertex -1.437341e+001 -2.499570e+001  5.927662e+000
    endloop
  endfacet
  facet normal -1.904968e-001 -6.953594e-002  9.792220e-001
    outer loop
      vertex -1.470711e+001 -8.522119e+000  7.032558e+000
      vertex -1.437341e+001 -2.499570e+001  5.927662e+000
      vertex -1.400000e+001 -2.500000e+001  6.000000e+000
    endloop
  endfacet
  facet normal -5.272499e-001 -7.565972e-002  8.463351e-001
    outer loop
      vertex -1.470711e+001 -8.522119e+000  7.032558e+000
      vertex -1.400000e+001 -2.500000e+001  6.000000e+000
      vertex -1.400000e+001 -1.224871e+001  7.139926e+000
    endloop
  endfacet
  facet normal -2.931633e-001 -2.809314e-002  9.556496e-001
    outer loop
      vertex -1.470711e+001 -8.522119e+000  7.032558e+000
      vertex -1.400000e+001 -1.224871e+001  7.139926e+000
      vertex -1.400000e+001  0.000000e+000  7.500000e+000
    endloop
  endfacet
  facet normal -5.328958e-001 -2.197226e-003  8.461780e-001
    outer loop
      vertex -1.470711e+001 -8.522119e+000  7.032558e+000
      vertex -1.400000e+001  0.000000e+000  7.500000e+000
      vertex -1.470711e+001  7.441700e+000  7.074010e+000
    endloop
  endfacet
  facet normal -9.237797e-001 -9.943162e-004  3.829230e-001
    outer loop
      vertex -1.470711e+001 -8.522119e+000  7.032558e+000
      vertex -1.470711e+001  7.441700e+000  7.074010e+000
      vertex -1.500000e+001  7.416422e+000  6.367356e+000
    endloop
  endfacet
  facet normal -9.237798e-001 -9.943297e-004  3.829227e-001
    outer loop
      vertex -1.470711e+001 -8.522119e+000  7.032558e+000
      vertex -1.500000e+001  7.416422e+000  6.367356e+000
      vertex -1.500000e+001 -8.493177e+000  6.326044e+000
    endloop
  endfacet
  facet normal -9.238283e-001 -2.616620e-002  3.819118e-001
    outer loop
      vertex -1.470711e+001 -8.522119e+000  7.032558e+000
      vertex -1.500000e+001 -8.493177e+000  6.326044e+000
      vertex -1.491371e+001 -2.496643e+001  5.406133e+000
    endloop
  endfacet
  facet normal -8.192125e-001 -4.624391e-002  5.716226e-001
    outer loop
      vertex -1.470711e+001 -8.522119e+000  7.032558e+000
      vertex -1.491371e+001 -2.496643e+001  5.406133e+000
      vertex -1.469333e+001 -2.498371e+001  5.720569e+000
    endloop
  endfacet
  facet normal -8.204682e-001  3.530646e-002  5.706007e-001
    outer loop
      vertex -1.491444e+001  2.496680e+001  5.404444e+000
      vertex -1.500000e+001  7.416422e+000  6.367356e+000
      vertex -1.469495e+001  2.498370e+001  5.719002e+000
    endloop
  endfacet
  facet normal -9.237541e-001  3.013191e-002  3.817990e-001
    outer loop
      vertex -1.469495e+001  2.498370e+001  5.719002e+000
      vertex -1.500000e+001  7.416422e+000  6.367356e+000
      vertex -1.470711e+001  7.441700e+000  7.074010e+000
    endloop
  endfacet
  facet normal -5.455024e-001  6.492225e-002  8.355910e-001
    outer loop
      vertex -1.469495e+001  2.498370e+001  5.719002e+000
      vertex -1.470711e+001  7.441700e+000  7.074010e+000
      vertex -1.437469e+001  2.499568e+001  5.927147e+000
    endloop
  endfacet
  facet normal -5.127720e-001  6.563663e-002  8.560121e-001
    outer loop
      vertex -1.437469e+001  2.499568e+001  5.927147e+000
      vertex -1.470711e+001  7.441700e+000  7.074010e+000
      vertex -1.400000e+001  1.168082e+001  7.172540e+000
    endloop
  endfacet
  facet normal -1.911105e-001  8.607848e-002  9.777869e-001
    outer loop
      vertex -1.437469e+001  2.499568e+001  5.927147e+000
      vertex -1.400000e+001  1.168082e+001  7.172540e+000
      vertex -1.400000e+001  2.500000e+001  6.000000e+000
    endloop
  endfacet
  facet normal -9.238794e-001  -0.000000e+000 -3.826837e-001
    outer loop
      vertex -1.500000e+001 -2.500000e+001  1.000000e+000
      vertex -1.500000e+001 -1.300000e+001  1.000000e+000
      vertex -1.470711e+001 -2.500000e+001  2.928932e-001
    endloop
  endfacet
  facet normal -9.238794e-001  0.000000e+000 -3.826837e-001
    outer loop
      vertex -1.470711e+001 -2.500000e+001  2.928932e-001
      vertex -1.500000e+001 -1.300000e+001  1.000000e+000
      vertex -1.470711e+001 -1.300000e+001  2.928932e-001
    endloop
  endfacet
  facet normal -3.826835e-001  -0.000000e+000 -9.238794e-001
    outer loop
      vertex -1.470711e+001 -2.500000e+001  2.928932e-001
      vertex -1.470711e+001 -1.300000e+001  2.928932e-001
      vertex -1.400000e+001 -2.500000e+001  0.000000e+000
    endloop
  endfacet
  facet normal -3.826835e-001  0.000000e+000 -9.238794e-001
    outer loop
      vertex -1.400000e+001 -2.500000e+001  0.000000e+000
      vertex -1.470711e+001 -1.300000e+001  2.928932e-001
      vertex -1.400000e+001 -1.300000e+001  0.000000e+000
    endloop
  endfacet
  facet normal  9.999999e-001  0.000000e+000  0.000000e+000
    outer loop
      vertex  1.500000e+001 -2.689188e+001  3.648674e+000
      vertex  1.500000e+001 -2.690866e+001  2.402483e+000
      vertex  1.500000e+001 -1.104932e+001  2.558589e+000
    endloop
  endfacet
  facet normal  1.000000e+000  0.000000e+000  0.000000e+000
    outer loop
      vertex  1.500000e+001 -2.689188e+001  3.648674e+000
      vertex  1.500000e+001 -1.104932e+001  2.558589e+000
      vertex  1.500000e+001 -1.120049e+001  3.872796e+000
    endloop
  endfacet
  facet normal  1.000000e+000  0.000000e+000  -0.000000e+000
    outer loop
      vertex  1.500000e+001 -2.689188e+001  3.648674e+000
      vertex  1.500000e+001 -1.120049e+001  3.872796e+000
      vertex  1.500000e+001 -8.503510e+000  4.153554e+000
    endloop
  endfacet
  facet normal  1.000000e+000  0.000000e+000  -0.000000e+000
    outer loop
      vertex  1.500000e+001 -2.689188e+001  3.648674e+000
      vertex  1.500000e+001 -8.503510e+000  4.153554e+000
      vertex  1.500000e+001  2.694884e+000  4.612202e+000
    endloop
  endfacet
  facet normal  1.000000e+000  0.000000e+000  0.000000e+000
    outer loop
      vertex  1.500000e+001 -2.689188e+001  3.648674e+000
      vertex  1.500000e+001  2.694884e+000  4.612202e+000
      vertex  1.500000e+001 -2.614046e+001  4.642973e+000
    endloop
  endfacet
  facet normal  1.000000e+000  0.000000e+000  0.000000e+000
    outer loop
      vertex  1.500000e+001  8.493177e+000  6.326044e+000
      vertex  1.500000e+001 -7.416422e+000  6.367356e+000
      vertex  1.500000e+001  2.494772e+001  4.999088e+000
    endloop
  endfacet
  facet normal  1.000000e+000  0.000000e+000  0.000000e+000
    outer loop
      vertex  1.500000e+001  2.494772e+001  4.999088e+000
      vertex  1.500000e+001 -7.416422e+000  6.367356e+000
      vertex  1.500000e+001 -2.494617e+001  4.999275e+000
    endloop
  endfacet
  facet normal  1.000000e+000  0.000000e+000  0.000000e+000
    outer loop
      vertex  1.500000e+001  2.494772e+001  4.999088e+000
      vertex  1.500000e+001 -2.494617e+001  4.999275e+000
      vertex  1.500000e+001  2.694884e+000  4.612202e+000
    endloop
  endfacet
  facet normal  1.000000e+000  0.000000e+000  0.000000e+000
    outer loop
      vertex  1.500000e+001  2.694884e+000  4.612202e+000
      vertex  1.500000e+001 -2.494617e+001  4.999275e+000
      vertex  1.500000e+001 -2.614046e+001  4.642973e+000
    endloop
  endfacet
  facet normal  1.000000e+000  -0.000000e+000  0.000000e+000
    outer loop
      vertex  1.500000e+001 -1.104932e+001  2.558589e+000
      vertex  1.500000e+001 -2.690866e+001  2.402483e+000
      vertex  1.500000e+001 -1.175156e+001  1.437498e+000
    endloop
  endfacet
  facet normal  1.000000e+000  0.000000e+000  0.000000e+000
    outer loop
      vertex  1.500000e+001 -1.175156e+001  1.437498e+000
      vertex  1.500000e+001 -2.690866e+001  2.402483e+000
      vertex  1.500000e+001 -2.618427e+001  1.388319e+000
    endloop
  endfacet
  facet normal  1.000000e+000  -0.000000e+000  0.000000e+000
    outer loop
      vertex  1.500000e+001 -1.175156e+001  1.437498e+000
      vertex  1.500000e+001 -2.618427e+001  1.388319e+000
      vertex  1.500000e+001 -1.300000e+001  1.000000e+000
    endloop
  endfacet
  facet normal  9.999999e-001  0.000000e+000  0.000000e+000
    outer loop
      vertex  1.500000e+001 -1.300000e+001  1.000000e+000
      vertex  1.500000e+001 -2.618427e+001  1.388319e+000
      vertex  1.500000e+001 -2.500000e+001  1.000000e+000
    endloop
  endfacet
  facet normal  1.000000e+000  0.000000e+000  0.000000e+000
    outer loop
      vertex  1.500000e+001  2.509703e+001  2.003142e+000
      vertex  1.500000e+001  2.611963e+001  2.501786e+000
      vertex  1.500000e+001  1.383996e+001  3.912185e+000
    endloop
  endfacet
  facet normal  9.999999e-001  0.000000e+000  0.000000e+000
    outer loop
      vertex  1.500000e+001  1.383996e+001  3.912185e+000
      vertex  1.500000e+001  2.611963e+001  2.501786e+000
      vertex  1.500000e+001  2.649814e+001  3.574668e+000
    endloop
  endfacet
  facet normal  1.000000e+000  0.000000e+000  0.000000e+000
    outer loop
      vertex  1.500000e+001  1.383996e+001  3.912185e+000
      vertex  1.500000e+001  2.649814e+001  3.574668e+000
      vertex  1.500000e+001  2.694884e+000  4.612202e+000
    endloop
  endfacet
  facet normal  1.000000e+000  0.000000e+000  0.000000e+000
    outer loop
      vertex  1.500000e+001  2.694884e+000  4.612202e+000
      vertex  1.500000e+001  2.649814e+001  3.574668e+000
      vertex  1.500000e+001  2.601482e+001  4.604596e+000
    endloop
  endfacet
  facet normal  1.000000e+000  0.000000e+000  0.000000e+000
    outer loop
      vertex  1.500000e+001  2.694884e+000  4.612202e+000
      vertex  1.500000e+001  2.601482e+001  4.604596e+000
      vertex  1.500000e+001  2.494772e+001  4.999088e+000
    endloop
  endfacet
  facet normal  8.203784e-001  4.608626e-002  5.699609e-001
    outer loop
      vertex  1.469494e+001  2.498369e+001  5.719005e+000
      vertex  1.470711e+001  8.522119e+000  7.032558e+000
      vertex  1.491443e+001  2.496679e+001  5.404445e+000
    endloop
  endfacet
  facet normal  9.238284e-001  2.616412e-002  3.819119e-001
    outer loop
      vertex  1.491443e+001  2.496679e+001  5.404445e+000
      vertex  1.470711e+001  8.522119e+000  7.032558e+000
      vertex  1.500000e+001  8.493177e+000  6.326044e+000
    endloop
  endfacet
  facet normal  9.784618e-001  1.659325e-002  2.057599e-001
    outer loop
      vertex  1.491443e+001  2.496679e+001  5.404445e+000
      vertex  1.500000e+001  8.493177e+000  6.326044e+000
      vertex  1.500000e+001  2.494772e+001  4.999088e+000
    endloop
  endfacet
  facet normal  1.911459e-001  7.868711e-002  9.784026e-001
    outer loop
      vertex  1.400000e+001  2.500000e+001  6.000000e+000
      vertex  1.400000e+001  8.510029e+000  7.326190e+000
      vertex  1.437469e+001  2.499567e+001  5.927148e+000
    endloop
  endfacet
  facet normal  3.815643e-001  6.954914e-002  9.217221e-001
    outer loop
      vertex  1.437469e+001  2.499567e+001  5.927148e+000
      vertex  1.400000e+001  8.510029e+000  7.326190e+000
      vertex  1.470711e+001  8.522119e+000  7.032558e+000
    endloop
  endfacet
  facet normal  5.454779e-001  6.706688e-002  8.354375e-001
    outer loop
      vertex  1.437469e+001  2.499567e+001  5.927148e+000
      vertex  1.470711e+001  8.522119e+000  7.032558e+000
      vertex  1.469494e+001  2.498369e+001  5.719005e+000
    endloop
  endfacet
  facet normal  8.192274e-001 -4.475409e-002  5.717198e-001
    outer loop
      vertex  1.469332e+001 -2.498372e+001  5.720574e+000
      vertex  1.491371e+001 -2.496644e+001  5.406134e+000
      vertex  1.470711e+001 -7.441700e+000  7.074010e+000
    endloop
  endfacet
  facet normal  9.782899e-001 -8.175096e-003  2.070796e-001
    outer loop
      vertex  1.470711e+001 -7.441700e+000  7.074010e+000
      vertex  1.491371e+001 -2.496644e+001  5.406134e+000
      vertex  1.500000e+001 -2.494617e+001  4.999275e+000
    endloop
  endfacet
  facet normal  9.237590e-001 -2.979799e-002  3.818130e-001
    outer loop
      vertex  1.470711e+001 -7.441700e+000  7.074010e+000
      vertex  1.500000e+001 -2.494617e+001  4.999275e+000
      vertex  1.500000e+001 -7.416422e+000  6.367356e+000
    endloop
  endfacet
  facet normal  1.904735e-001 -7.618063e-002  9.787320e-001
    outer loop
      vertex  1.400000e+001 -2.500000e+001  6.000000e+000
      vertex  1.437340e+001 -2.499571e+001  5.927665e+000
      vertex  1.400000e+001 -7.431683e+000  7.367448e+000
    endloop
  endfacet
  facet normal  5.440249e-001 -5.705646e-002  8.371270e-001
    outer loop
      vertex  1.400000e+001 -7.431683e+000  7.367448e+000
      vertex  1.437340e+001 -2.499571e+001  5.927665e+000
      vertex  1.469332e+001 -2.498372e+001  5.720574e+000
    endloop
  endfacet
  facet normal  3.814492e-001 -7.140691e-002  9.216278e-001
    outer loop
      vertex  1.400000e+001 -7.431683e+000  7.367448e+000
      vertex  1.469332e+001 -2.498372e+001  5.720574e+000
      vertex  1.470711e+001 -7.441700e+000  7.074010e+000
    endloop
  endfacet
  facet normal  9.237798e-001  9.943297e-004  3.829227e-001
    outer loop
      vertex  1.500000e+001  8.493177e+000  6.326044e+000
      vertex  1.470711e+001  8.522119e+000  7.032558e+000
      vertex  1.500000e+001 -7.416422e+000  6.367356e+000
    endloop
  endfacet
  facet normal  9.237797e-001  9.943162e-004  3.829231e-001
    outer loop
      vertex  1.500000e+001 -7.416422e+000  6.367356e+000
      vertex  1.470711e+001  8.522119e+000  7.032558e+000
      vertex  1.470711e+001 -7.441700e+000  7.074010e+000
    endloop
  endfacet
  facet normal  3.834715e-001  2.398133e-003  9.235497e-001
    outer loop
      vertex  1.470711e+001  8.522119e+000  7.032558e+000
      vertex  1.400000e+001  8.510029e+000  7.326190e+000
      vertex  1.470711e+001 -7.441700e+000  7.074010e+000
    endloop
  endfacet
  facet normal  3.833186e-001  2.390352e-003  9.236131e-001
    outer loop
      vertex  1.470711e+001 -7.441700e+000  7.074010e+000
      vertex  1.400000e+001  8.510029e+000  7.326190e+000
      vertex  1.400000e+001 -7.431683e+000  7.367448e+000
    endloop
  endfacet
  facet normal  9.210097e-001  1.707329e-001 -3.501306e-001
    outer loop
      vertex  1.500000e+001  2.509703e+001  2.003142e+000
      vertex  1.470711e+001  2.657420e+001  1.952999e+000
      vertex  1.500000e+001  2.611963e+001  2.501786e+000
    endloop
  endfacet
  facet normal  9.599525e-001  1.831429e-001 -2.120138e-001
    outer loop
      vertex  1.500000e+001  2.509703e+001  2.003142e+000
      vertex  1.491902e+001  2.506270e+001  1.606830e+000
      vertex  1.470711e+001  2.657420e+001  1.952999e+000
    endloop
  endfacet
  facet normal  3.756400e-001  8.607829e-001 -3.434347e-001
    outer loop
      vertex  1.400000e+001  2.750000e+001  3.500000e+000
      vertex  1.470711e+001  2.720677e+001  3.538470e+000
      vertex  1.470711e+001  2.657420e+001  1.952999e+000
    endloop
  endfacet
  facet normal  3.845774e-001  8.449278e-001  3.717490e-001
    outer loop
      vertex  1.400000e+001  2.676777e+001  5.267767e+000
      vertex  1.470711e+001  2.651933e+001  5.100929e+000
      vertex  1.470711e+001  2.720677e+001  3.538470e+000
    endloop
  endfacet
  facet normal  3.406344e-001  8.686277e-001  3.597974e-001
    outer loop
      vertex  1.400000e+001  2.676777e+001  5.267767e+000
      vertex  1.470711e+001  2.720677e+001  3.538470e+000
      vertex  1.400000e+001  2.750000e+001  3.500000e+000
    endloop
  endfacet
  facet normal  9.184917e-001  3.729129e-001 -1.315632e-001
    outer loop
      vertex  1.470711e+001  2.720677e+001  3.538470e+000
      vertex  1.500000e+001  2.649814e+001  3.574668e+000
      vertex  1.500000e+001  2.611963e+001  2.501786e+000
    endloop
  endfacet
  facet normal  9.056505e-001  3.938355e-001 -1.571323e-001
    outer loop
      vertex  1.470711e+001  2.720677e+001  3.538470e+000
      vertex  1.500000e+001  2.611963e+001  2.501786e+000
      vertex  1.470711e+001  2.657420e+001  1.952999e+000
    endloop
  endfacet
  facet normal  9.078201e-001  3.838495e-001  1.688851e-001
    outer loop
      vertex  1.470711e+001  2.651933e+001  5.100929e+000
      vertex  1.500000e+001  2.649814e+001  3.574668e+000
      vertex  1.470711e+001  2.720677e+001  3.538470e+000
    endloop
  endfacet
  facet normal  8.062345e-001  2.153840e-001  5.509952e-001
    outer loop
      vertex  1.491443e+001  2.496679e+001  5.404445e+000
      vertex  1.470711e+001  2.651933e+001  5.100929e+000
      vertex  1.469494e+001  2.498369e+001  5.719005e+000
    endloop
  endfacet
  facet normal  7.900876e-001  2.399583e-001 -5.640758e-001
    outer loop
      vertex  1.491902e+001  2.506270e+001  1.606830e+000
      vertex  1.469910e+001  2.503073e+001  1.285193e+000
      vertex  1.470711e+001  2.657420e+001  1.952999e+000
    endloop
  endfacet
  facet normal  1.704398e-001  3.770840e-001 -9.103614e-001
    outer loop
      vertex  1.400000e+001  2.500000e+001  1.000000e+000
      vertex  1.400000e+001  2.676777e+001  1.732233e+000
      vertex  1.437775e+001  2.500817e+001  1.074109e+000
    endloop
  endfacet
  facet normal  4.990411e-001  3.419292e-001 -7.962676e-001
    outer loop
      vertex  1.469910e+001  2.503073e+001  1.285193e+000
      vertex  1.437775e+001  2.500817e+001  1.074109e+000
      vertex  1.470711e+001  2.657420e+001  1.952999e+000
    endloop
  endfacet
  facet normal  3.704804e-001  3.941168e-001 -8.410804e-001
    outer loop
      vertex  1.470711e+001  2.657420e+001  1.952999e+000
      vertex  1.437775e+001  2.500817e+001  1.074109e+000
      vertex  1.400000e+001  2.676777e+001  1.732233e+000
    endloop
  endfacet
  facet normal  3.489724e-001  8.657980e-001 -3.586253e-001
    outer loop
      vertex  1.470711e+001  2.657420e+001  1.952999e+000
      vertex  1.400000e+001  2.676777e+001  1.732233e+000
      vertex  1.400000e+001  2.750000e+001  3.500000e+000
    endloop
  endfacet
  facet normal  3.324001e-001  3.609235e-001  8.713464e-001
    outer loop
      vertex  1.400000e+001  2.676777e+001  5.267767e+000
      vertex  1.400000e+001  2.500000e+001  6.000000e+000
      vertex  1.470711e+001  2.651933e+001  5.100929e+000
    endloop
  endfacet
  facet normal  1.763571e-001  4.392048e-001  8.809071e-001
    outer loop
      vertex  1.470711e+001  2.651933e+001  5.100929e+000
      vertex  1.400000e+001  2.500000e+001  6.000000e+000
      vertex  1.437469e+001  2.499567e+001  5.927148e+000
    endloop
  endfacet
  facet normal  5.255981e-001  3.140615e-001  7.906402e-001
    outer loop
      vertex  1.470711e+001  2.651933e+001  5.100929e+000
      vertex  1.437469e+001  2.499567e+001  5.927148e+000
      vertex  1.469494e+001  2.498369e+001  5.719005e+000
    endloop
  endfacet
  facet normal  9.662011e-001  1.673606e-001  1.960762e-001
    outer loop
      vertex  1.491443e+001  2.496679e+001  5.404445e+000
      vertex  1.500000e+001  2.494772e+001  4.999088e+000
      vertex  1.470711e+001  2.651933e+001  5.100929e+000
    endloop
  endfacet
  facet normal  9.094181e-001  1.442066e-001  3.900810e-001
    outer loop
      vertex  1.470711e+001  2.651933e+001  5.100929e+000
      vertex  1.500000e+001  2.494772e+001  4.999088e+000
      vertex  1.500000e+001  2.601482e+001  4.604596e+000
    endloop
  endfacet
  facet normal  9.157372e-001  3.637203e-001  1.706838e-001
    outer loop
      vertex  1.470711e+001  2.651933e+001  5.100929e+000
      vertex  1.500000e+001  2.601482e+001  4.604596e+000
      vertex  1.500000e+001  2.649814e+001  3.574668e+000
    endloop
  endfacet
  facet normal  8.261490e-001 -9.426095e-002 -5.555111e-001
    outer loop
      vertex  1.491902e+001  2.506270e+001  1.606830e+000
      vertex  1.470711e+001  1.375885e+001  3.209748e+000
      vertex  1.469910e+001  2.503073e+001  1.285193e+000
    endloop
  endfacet
  facet normal  6.781464e-001  5.775439e-002 -7.326540e-001
    outer loop
      vertex  1.448980e+001 -1.013047e+001  3.114926e+000
      vertex  1.470711e+001 -8.438666e+000  3.449427e+000
      vertex  1.484639e+001 -1.050179e+001  3.415715e+000
    endloop
  endfacet
  facet normal  3.371084e-001 -5.433176e-002 -9.398968e-001
    outer loop
      vertex  1.400000e+001  1.300000e+001  3.000000e+000
      vertex  1.470711e+001  1.375885e+001  3.209748e+000
      vertex  1.400000e+001  2.356969e+000  3.615232e+000
    endloop
  endfacet
  facet normal  4.015671e-001 -5.740932e-002 -9.140285e-001
    outer loop
      vertex  1.400000e+001  2.356969e+000  3.615232e+000
      vertex  1.470711e+001  1.375885e+001  3.209748e+000
      vertex  1.470711e+001  2.687383e+000  3.905138e+000
    endloop
  endfacet
  facet normal  3.603032e-001  4.638679e-002 -9.316813e-001
    outer loop
      vertex  1.400000e+001  2.356969e+000  3.615232e+000
      vertex  1.470711e+001  2.687383e+000  3.905138e+000
      vertex  1.400000e+001 -1.000000e+001  3.000000e+000
    endloop
  endfacet
  facet normal  4.783339e-001  3.593909e-002 -8.774424e-001
    outer loop
      vertex  1.400000e+001 -1.000000e+001  3.000000e+000
      vertex  1.470711e+001  2.687383e+000  3.905138e+000
      vertex  1.470711e+001 -8.438666e+000  3.449427e+000
    endloop
  endfacet
  facet normal  2.644596e-001  1.542554e-001 -9.519802e-001
    outer loop
      vertex  1.400000e+001 -1.000000e+001  3.000000e+000
      vertex  1.470711e+001 -8.438666e+000  3.449427e+000
      vertex  1.448980e+001 -1.013047e+001  3.114926e+000
    endloop
  endfacet
  facet normal  1.933527e-001 -1.612967e-001 -9.677800e-001
    outer loop
      vertex  1.400000e+001  2.500000e+001  1.000000e+000
      vertex  1.437775e+001  2.500817e+001  1.074109e+000
      vertex  1.400000e+001  1.300000e+001  3.000000e+000
    endloop
  endfacet
  facet normal  5.501748e-001 -1.490825e-001 -8.216338e-001
    outer loop
      vertex  1.400000e+001  1.300000e+001  3.000000e+000
      vertex  1.437775e+001  2.500817e+001  1.074109e+000
      vertex  1.469910e+001  2.503073e+001  1.285193e+000
    endloop
  endfacet
  facet normal  4.273480e-001 -1.518665e-001 -8.912409e-001
    outer loop
      vertex  1.400000e+001  1.300000e+001  3.000000e+000
      vertex  1.469910e+001  2.503073e+001  1.285193e+000
      vertex  1.470711e+001  1.375885e+001  3.209748e+000
    endloop
  endfacet
  facet normal  9.600444e-001  2.897575e-002 -2.783433e-001
    outer loop
      vertex  1.500000e+001 -1.120049e+001  3.872796e+000
      vertex  1.484639e+001 -1.050179e+001  3.415715e+000
      vertex  1.500000e+001 -8.503510e+000  4.153554e+000
    endloop
  endfacet
  facet normal  9.233585e-001  6.851038e-002 -3.777770e-001
    outer loop
      vertex  1.500000e+001 -8.503510e+000  4.153554e+000
      vertex  1.484639e+001 -1.050179e+001  3.415715e+000
      vertex  1.470711e+001 -8.438666e+000  3.449427e+000
    endloop
  endfacet
  facet normal  9.237040e-001  1.567760e-002 -3.827862e-001
    outer loop
      vertex  1.500000e+001 -8.503510e+000  4.153554e+000
      vertex  1.470711e+001 -8.438666e+000  3.449427e+000
      vertex  1.500000e+001  2.694884e+000  4.612202e+000
    endloop
  endfacet
  facet normal  9.236989e-001  1.567900e-002 -3.827983e-001
    outer loop
      vertex  1.500000e+001  2.694884e+000  4.612202e+000
      vertex  1.470711e+001 -8.438666e+000  3.449427e+000
      vertex  1.470711e+001  2.687383e+000  3.905138e+000
    endloop
  endfacet
  facet normal  9.236948e-001 -2.401681e-002 -3.823754e-001
    outer loop
      vertex  1.500000e+001  2.694884e+000  4.612202e+000
      vertex  1.470711e+001  2.687383e+000  3.905138e+000
      vertex  1.500000e+001  1.383996e+001  3.912185e+000
    endloop
  endfacet
  facet normal  9.236940e-001 -2.401678e-002 -3.823774e-001
    outer loop
      vertex  1.500000e+001  1.383996e+001  3.912185e+000
      vertex  1.470711e+001  2.687383e+000  3.905138e+000
      vertex  1.470711e+001  1.375885e+001  3.209748e+000
    endloop
  endfacet
  facet normal  9.236882e-001 -6.406137e-002 -3.777513e-001
    outer loop
      vertex  1.500000e+001  1.383996e+001  3.912185e+000
      vertex  1.470711e+001  1.375885e+001  3.209748e+000
      vertex  1.500000e+001  2.509703e+001  2.003142e+000
    endloop
  endfacet
  facet normal  9.794879e-001 -4.617587e-002 -1.961409e-001
    outer loop
      vertex  1.500000e+001  2.509703e+001  2.003142e+000
      vertex  1.470711e+001  1.375885e+001  3.209748e+000
      vertex  1.491902e+001  2.506270e+001  1.606830e+000
    endloop
  endfacet
  facet normal  5.324425e-001 -2.525533e-001  8.079121e-001
    outer loop
      vertex  1.470711e+001 -2.654367e+001  5.223852e+000
      vertex  1.469332e+001 -2.498372e+001  5.720574e+000
      vertex  1.437340e+001 -2.499571e+001  5.927665e+000
    endloop
  endfacet
  facet normal  8.112372e-001 -1.708905e-001  5.591876e-001
    outer loop
      vertex  1.491371e+001 -2.496644e+001  5.406134e+000
      vertex  1.469332e+001 -2.498372e+001  5.720574e+000
      vertex  1.470711e+001 -2.654367e+001  5.223852e+000
    endloop
  endfacet
  facet normal  3.665255e-001 -2.875119e-001 -8.848706e-001
    outer loop
      vertex  1.400000e+001 -2.500000e+001  0.000000e+000
      vertex  1.470711e+001 -2.500000e+001  2.928932e-001
      vertex  1.400000e+001 -2.676336e+001  5.729490e-001
    endloop
  endfacet
  facet normal  3.719128e-001 -2.892258e-001 -8.820596e-001
    outer loop
      vertex  1.400000e+001 -2.676336e+001  5.729490e-001
      vertex  1.470711e+001 -2.500000e+001  2.928932e-001
      vertex  1.470711e+001 -2.660297e+001  8.185031e-001
    endloop
  endfacet
  facet normal  3.614206e-001 -7.543296e-001 -5.480531e-001
    outer loop
      vertex  1.400000e+001 -2.676336e+001  5.729490e-001
      vertex  1.470711e+001 -2.660297e+001  8.185031e-001
      vertex  1.400000e+001 -2.785317e+001  2.072949e+000
    endloop
  endfacet
  facet normal  3.774469e-001 -7.535467e-001 -5.382392e-001
    outer loop
      vertex  1.400000e+001 -2.785317e+001  2.072949e+000
      vertex  1.470711e+001 -2.660297e+001  8.185031e-001
      vertex  1.470711e+001 -2.758347e+001  2.191229e+000
    endloop
  endfacet
  facet normal  3.563727e-001 -9.343439e-001  0.000000e+000
    outer loop
      vertex  1.400000e+001 -2.785317e+001  2.072949e+000
      vertex  1.470711e+001 -2.758347e+001  2.191229e+000
      vertex  1.400000e+001 -2.785317e+001  3.927051e+000
    endloop
  endfacet
  facet normal  3.828467e-001 -9.237282e-001  1.243389e-002
    outer loop
      vertex  1.400000e+001 -2.785317e+001  3.927051e+000
      vertex  1.470711e+001 -2.758347e+001  2.191229e+000
      vertex  1.470711e+001 -2.756076e+001  3.878015e+000
    endloop
  endfacet
  facet normal  3.513776e-001 -7.574287e-001  5.503049e-001
    outer loop
      vertex  1.400000e+001 -2.785317e+001  3.927051e+000
      vertex  1.470711e+001 -2.756076e+001  3.878015e+000
      vertex  1.400000e+001 -2.676336e+001  5.427051e+000
    endloop
  endfacet
  facet normal  3.881141e-001 -7.352597e-001  5.556623e-001
    outer loop
      vertex  1.400000e+001 -2.676336e+001  5.427051e+000
      vertex  1.470711e+001 -2.756076e+001  3.878015e+000
      vertex  1.470711e+001 -2.654367e+001  5.223852e+000
    endloop
  endfacet
  facet normal  3.464390e-001 -2.898804e-001  8.921600e-001
    outer loop
      vertex  1.400000e+001 -2.676336e+001  5.427051e+000
      vertex  1.470711e+001 -2.654367e+001  5.223852e+000
      vertex  1.400000e+001 -2.500000e+001  6.000000e+000
    endloop
  endfacet
  facet normal  1.804780e-001 -3.745969e-001  9.094531e-001
    outer loop
      vertex  1.400000e+001 -2.500000e+001  6.000000e+000
      vertex  1.470711e+001 -2.654367e+001  5.223852e+000
      vertex  1.437340e+001 -2.499571e+001  5.927665e+000
    endloop
  endfacet
  facet normal  9.770350e-001 -6.091631e-002  2.041854e-001
    outer loop
      vertex  1.500000e+001 -2.494617e+001  4.999275e+000
      vertex  1.491371e+001 -2.496644e+001  5.406134e+000
      vertex  1.500000e+001 -2.614046e+001  4.642973e+000
    endloop
  endfacet
  facet normal  9.217138e-001 -1.614924e-001  3.526524e-001
    outer loop
      vertex  1.500000e+001 -2.614046e+001  4.642973e+000
      vertex  1.491371e+001 -2.496644e+001  5.406134e+000
      vertex  1.470711e+001 -2.654367e+001  5.223852e+000
    endloop
  endfacet
  facet normal  9.166907e-001 -3.187980e-001  2.409274e-001
    outer loop
      vertex  1.500000e+001 -2.614046e+001  4.642973e+000
      vertex  1.470711e+001 -2.654367e+001  5.223852e+000
      vertex  1.500000e+001 -2.689188e+001  3.648674e+000
    endloop
  endfacet
  facet normal  9.166904e-001 -3.187985e-001  2.409275e-001
    outer loop
      vertex  1.500000e+001 -2.689188e+001  3.648674e+000
      vertex  1.470711e+001 -2.654367e+001  5.223852e+000
      vertex  1.470711e+001 -2.756076e+001  3.878015e+000
    endloop
  endfacet
  facet normal  9.166905e-001 -3.995620e-001  5.377940e-003
    outer loop
      vertex  1.500000e+001 -2.689188e+001  3.648674e+000
      vertex  1.470711e+001 -2.756076e+001  3.878015e+000
      vertex  1.500000e+001 -2.690866e+001  2.402483e+000
    endloop
  endfacet
  facet normal  9.166907e-001 -3.995613e-001  5.378316e-003
    outer loop
      vertex  1.500000e+001 -2.690866e+001  2.402483e+000
      vertex  1.470711e+001 -2.756076e+001  3.878015e+000
      vertex  1.470711e+001 -2.758347e+001  2.191229e+000
    endloop
  endfacet
  facet normal  9.166908e-001 -3.251675e-001 -2.322589e-001
    outer loop
      vertex  1.500000e+001 -2.690866e+001  2.402483e+000
      vertex  1.470711e+001 -2.758347e+001  2.191229e+000
      vertex  1.500000e+001 -2.618427e+001  1.388319e+000
    endloop
  endfacet
  facet normal  9.166907e-001 -3.251675e-001 -2.322589e-001
    outer loop
      vertex  1.500000e+001 -2.618427e+001  1.388319e+000
      vertex  1.470711e+001 -2.758347e+001  2.191229e+000
      vertex  1.470711e+001 -2.660297e+001  8.185031e-001
    endloop
  endfacet
  facet normal  9.166908e-001 -1.245050e-001 -3.797060e-001
    outer loop
      vertex  1.500000e+001 -2.618427e+001  1.388319e+000
      vertex  1.470711e+001 -2.660297e+001  8.185031e-001
      vertex  1.500000e+001 -2.500000e+001  1.000000e+000
    endloop
  endfacet
  facet normal  9.166906e-001 -1.245049e-001 -3.797060e-001
    outer loop
      vertex  1.500000e+001 -2.500000e+001  1.000000e+000
      vertex  1.470711e+001 -2.660297e+001  8.185031e-001
      vertex  1.470711e+001 -2.500000e+001  2.928932e-001
    endloop
  endfacet
  facet normal  5.311506e-001  7.180390e-001 -4.497767e-001
    outer loop
      vertex  1.400000e+001 -1.040192e+001  1.500000e+000
      vertex  1.470711e+001 -1.035965e+001  2.402527e+000
      vertex  1.470711e+001 -1.131018e+001  8.850707e-001
    endloop
  endfacet
  facet normal  2.630019e-001  9.319206e-001 -2.497076e-001
    outer loop
      vertex  1.400000e+001 -1.040192e+001  1.500000e+000
      vertex  1.400000e+001 -1.000000e+001  3.000000e+000
      vertex  1.470711e+001 -1.035965e+001  2.402527e+000
    endloop
  endfacet
  facet normal  2.972119e-001  9.316446e-001 -2.090541e-001
    outer loop
      vertex  1.470711e+001 -1.035965e+001  2.402527e+000
      vertex  1.400000e+001 -1.000000e+001  3.000000e+000
      vertex  1.448980e+001 -1.013047e+001  3.114926e+000
    endloop
  endfacet
  facet normal  7.221754e-001  6.917064e-001 -2.238028e-003
    outer loop
      vertex  1.470711e+001 -1.035965e+001  2.402527e+000
      vertex  1.448980e+001 -1.013047e+001  3.114926e+000
      vertex  1.484639e+001 -1.050179e+001  3.415715e+000
    endloop
  endfacet
  facet normal  9.156820e-001  1.329168e-001 -3.792882e-001
    outer loop
      vertex  1.500000e+001 -1.300000e+001  1.000000e+000
      vertex  1.470711e+001 -1.300000e+001  2.928932e-001
      vertex  1.500000e+001 -1.175156e+001  1.437498e+000
    endloop
  endfacet
  facet normal  9.156820e-001  1.329168e-001 -3.792882e-001
    outer loop
      vertex  1.500000e+001 -1.175156e+001  1.437498e+000
      vertex  1.470711e+001 -1.300000e+001  2.928932e-001
      vertex  1.470711e+001 -1.131018e+001  8.850707e-001
    endloop
  endfacet
  facet normal  9.156820e-001  3.405998e-001 -2.133501e-001
    outer loop
      vertex  1.500000e+001 -1.175156e+001  1.437498e+000
      vertex  1.470711e+001 -1.131018e+001  8.850707e-001
      vertex  1.500000e+001 -1.104932e+001  2.558589e+000
    endloop
  endfacet
  facet normal  9.156821e-001  3.405994e-001 -2.133500e-001
    outer loop
      vertex  1.500000e+001 -1.104932e+001  2.558589e+000
      vertex  1.470711e+001 -1.131018e+001  8.850707e-001
      vertex  1.470711e+001 -1.035965e+001  2.402527e+000
    endloop
  endfacet
  facet normal  9.156822e-001  3.992702e-001  4.592817e-002
    outer loop
      vertex  1.500000e+001 -1.104932e+001  2.558589e+000
      vertex  1.470711e+001 -1.035965e+001  2.402527e+000
      vertex  1.500000e+001 -1.120049e+001  3.872796e+000
    endloop
  endfacet
  facet normal  9.833049e-001  1.406559e-001 -1.154440e-001
    outer loop
      vertex  1.500000e+001 -1.120049e+001  3.872796e+000
      vertex  1.470711e+001 -1.035965e+001  2.402527e+000
      vertex  1.484639e+001 -1.050179e+001  3.415715e+000
    endloop
  endfacet
  facet normal  3.640773e-001  3.080207e-001 -8.789602e-001
    outer loop
      vertex  1.470711e+001 -1.300000e+001  2.928932e-001
      vertex  1.400000e+001 -1.300000e+001  0.000000e+000
      vertex  1.470711e+001 -1.131018e+001  8.850707e-001
    endloop
  endfacet
  facet normal  5.084752e-001  2.228630e-001 -8.317361e-001
    outer loop
      vertex  1.470711e+001 -1.131018e+001  8.850707e-001
      vertex  1.400000e+001 -1.300000e+001  0.000000e+000
      vertex  1.400000e+001 -1.150000e+001  4.019238e-001
    endloop
  endfacet
  facet normal  2.814651e-001  6.785196e-001 -6.785193e-001
    outer loop
      vertex  1.470711e+001 -1.131018e+001  8.850707e-001
      vertex  1.400000e+001 -1.150000e+001  4.019238e-001
      vertex  1.400000e+001 -1.040192e+001  1.500000e+000
    endloop
  endfacet
  facet normal  3.826835e-001  0.000000e+000 -9.238794e-001
    outer loop
      vertex  1.400000e+001 -2.500000e+001  0.000000e+000
      vertex  1.400000e+001 -1.300000e+001  0.000000e+000
      vertex  1.470711e+001 -2.500000e+001  2.928932e-001
    endloop
  endfacet
  facet normal  3.826835e-001  0.000000e+000 -9.238794e-001
    outer loop
      vertex  1.470711e+001 -2.500000e+001  2.928932e-001
      vertex  1.400000e+001 -1.300000e+001  0.000000e+000
      vertex  1.470711e+001 -1.300000e+001  2.928932e-001
    endloop
  endfacet
  facet normal  9.238794e-001  0.000000e+000 -3.826837e-001
    outer loop
      vertex  1.470711e+001 -2.500000e+001  2.928932e-001
      vertex  1.470711e+001 -1.300000e+001  2.928932e-001
      vertex  1.500000e+001 -2.500000e+001  1.000000e+000
    endloop
  endfacet
  facet normal  9.238794e-001  0.000000e+000 -3.826837e-001
    outer loop
      vertex  1.500000e+001 -2.500000e+001  1.000000e+000
      vertex  1.470711e+001 -1.300000e+001  2.928932e-001
      vertex  1.500000e+001 -1.300000e+001  1.000000e+000
    endloop
  endfacet
endsolid CATIA STL
