solid CATIA STL
  facet normal  0.000000e+000 -7.374375e-002 -9.972772e-001
    outer loop
      vertex  1.400000e+001  2.485181e+001  2.006965e+000
      vertex -1.400000e+001  2.485181e+001  2.006965e+000
      vertex  1.400000e+001  2.492965e+001  2.001209e+000
    endloop
  endfacet
  facet normal  -0.000000e+000 -7.374375e-002 -9.972772e-001
    outer loop
      vertex  1.400000e+001  2.492965e+001  2.001209e+000
      vertex -1.400000e+001  2.485181e+001  2.006965e+000
      vertex -1.400000e+001  2.492965e+001  2.001209e+000
    endloop
  endfacet
  facet normal  0.000000e+000  3.126704e-001  9.498617e-001
    outer loop
      vertex -1.400000e+001  2.500000e+001  6.000000e+000
      vertex  1.400000e+001  2.500000e+001  6.000000e+000
      vertex -1.400000e+001  2.618651e+001  5.609432e+000
    endloop
  endfacet
  facet normal  -0.000000e+000  3.126704e-001  9.498617e-001
    outer loop
      vertex -1.400000e+001  2.618651e+001  5.609432e+000
      vertex  1.400000e+001  2.500000e+001  6.000000e+000
      vertex  1.400000e+001  2.618651e+001  5.609432e+000
    endloop
  endfacet
  facet normal  0.000000e+000  8.152701e-001  5.790808e-001
    outer loop
      vertex -1.400000e+001  2.618651e+001  5.609432e+000
      vertex  1.400000e+001  2.618651e+001  5.609432e+000
      vertex -1.400000e+001  2.690986e+001  4.591049e+000
    endloop
  endfacet
  facet normal  -0.000000e+000  8.152701e-001  5.790808e-001
    outer loop
      vertex -1.400000e+001  2.690986e+001  4.591049e+000
      vertex  1.400000e+001  2.618651e+001  5.609432e+000
      vertex  1.400000e+001  2.690986e+001  4.591049e+000
    endloop
  endfacet
  facet normal  0.000000e+000  9.998452e-001 -1.759182e-002
    outer loop
      vertex -1.400000e+001  2.690986e+001  4.591049e+000
      vertex  1.400000e+001  2.690986e+001  4.591049e+000
      vertex -1.400000e+001  2.688788e+001  3.342107e+000
    endloop
  endfacet
  facet normal  0.000000e+000  9.998452e-001 -1.759182e-002
    outer loop
      vertex -1.400000e+001  2.688788e+001  3.342107e+000
      vertex  1.400000e+001  2.690986e+001  4.591049e+000
      vertex  1.400000e+001  2.688788e+001  3.342107e+000
    endloop
  endfacet
  facet normal  0.000000e+000  7.943963e-001 -6.073997e-001
    outer loop
      vertex -1.400000e+001  2.688788e+001  3.342107e+000
      vertex  1.400000e+001  2.688788e+001  3.342107e+000
      vertex -1.400000e+001  2.612916e+001  2.349799e+000
    endloop
  endfacet
  facet normal  0.000000e+000  7.943963e-001 -6.073997e-001
    outer loop
      vertex -1.400000e+001  2.612916e+001  2.349799e+000
      vertex  1.400000e+001  2.688788e+001  3.342107e+000
      vertex  1.400000e+001  2.612916e+001  2.349799e+000
    endloop
  endfacet
  facet normal  0.000000e+000  2.790647e-001 -9.602724e-001
    outer loop
      vertex -1.400000e+001  2.612916e+001  2.349799e+000
      vertex  1.400000e+001  2.612916e+001  2.349799e+000
      vertex -1.400000e+001  2.492965e+001  2.001209e+000
    endloop
  endfacet
  facet normal  0.000000e+000  2.790647e-001 -9.602724e-001
    outer loop
      vertex -1.400000e+001  2.492965e+001  2.001209e+000
      vertex  1.400000e+001  2.612916e+001  2.349799e+000
      vertex  1.400000e+001  2.492965e+001  2.001209e+000
    endloop
  endfacet
  facet normal  -0.000000e+000 -1.126061e-001 -9.936398e-001
    outer loop
      vertex -1.400000e+001  2.485181e+001  2.006965e+000
      vertex  1.400000e+001  2.485181e+001  2.006965e+000
      vertex -1.400000e+001  1.300000e+001  3.350094e+000
    endloop
  endfacet
  facet normal  0.000000e+000 -1.126061e-001 -9.936398e-001
    outer loop
      vertex -1.400000e+001  1.300000e+001  3.350094e+000
      vertex  1.400000e+001  2.485181e+001  2.006965e+000
      vertex  1.400000e+001  1.300000e+001  3.350094e+000
    endloop
  endfacet
  facet normal  0.000000e+000  3.444922e-001 -9.387892e-001
    outer loop
      vertex  1.400000e+001 -9.041404e+000  3.350094e+000
      vertex  1.400000e+001 -9.688214e+000  3.112744e+000
      vertex -1.400000e+001 -9.041404e+000  3.350094e+000
    endloop
  endfacet
  facet normal  0.000000e+000  3.444922e-001 -9.387892e-001
    outer loop
      vertex -1.400000e+001 -9.041404e+000  3.350094e+000
      vertex  1.400000e+001 -9.688214e+000  3.112744e+000
      vertex -1.400000e+001 -9.688214e+000  3.112744e+000
    endloop
  endfacet
  facet normal  0.000000e+000  8.699461e-001 -4.931469e-001
    outer loop
      vertex  1.400000e+001 -9.688214e+000  3.112744e+000
      vertex  1.400000e+001 -1.002798e+001  2.513366e+000
      vertex -1.400000e+001 -9.688214e+000  3.112744e+000
    endloop
  endfacet
  facet normal  0.000000e+000  8.699461e-001 -4.931469e-001
    outer loop
      vertex -1.400000e+001 -9.688214e+000  3.112744e+000
      vertex  1.400000e+001 -1.002798e+001  2.513366e+000
      vertex -1.400000e+001 -1.002798e+001  2.513366e+000
    endloop
  endfacet
  facet normal  -0.000000e+000  0.000000e+000 -1.000000e+000
    outer loop
      vertex -1.400000e+001  1.300000e+001  3.350094e+000
      vertex  1.400000e+001  1.300000e+001  3.350094e+000
      vertex -1.400000e+001 -9.041404e+000  3.350094e+000
    endloop
  endfacet
  facet normal  0.000000e+000  0.000000e+000 -1.000000e+000
    outer loop
      vertex -1.400000e+001 -9.041404e+000  3.350094e+000
      vertex  1.400000e+001  1.300000e+001  3.350094e+000
      vertex  1.400000e+001 -9.041404e+000  3.350094e+000
    endloop
  endfacet
  facet normal  0.000000e+000  8.696268e-001 -4.937097e-001
    outer loop
      vertex -1.400000e+001 -1.002798e+001  2.513366e+000
      vertex  1.400000e+001 -1.002798e+001  2.513366e+000
      vertex -1.400000e+001 -1.105185e+001  7.099217e-001
    endloop
  endfacet
  facet normal  0.000000e+000  8.696268e-001 -4.937097e-001
    outer loop
      vertex -1.400000e+001 -1.105185e+001  7.099217e-001
      vertex  1.400000e+001 -1.002798e+001  2.513366e+000
      vertex  1.400000e+001 -1.105185e+001  7.099217e-001
    endloop
  endfacet
  facet normal  0.000000e+000  3.426695e-001 -9.394560e-001
    outer loop
      vertex -1.400000e+001 -1.105185e+001  7.099217e-001
      vertex  1.400000e+001 -1.105185e+001  7.099217e-001
      vertex -1.400000e+001 -1.300010e+001 -7.108643e-004
    endloop
  endfacet
  facet normal  0.000000e+000  3.426695e-001 -9.394560e-001
    outer loop
      vertex -1.400000e+001 -1.300010e+001 -7.108643e-004
      vertex  1.400000e+001 -1.105185e+001  7.099217e-001
      vertex  1.400000e+001 -1.300010e+001 -7.108643e-004
    endloop
  endfacet
  facet normal  0.000000e+000  7.858276e-006  1.000000e+000
    outer loop
      vertex  1.400000e+001 -2.500000e+001  6.000393e+000
      vertex  1.400000e+001  2.500000e+001  6.000000e+000
      vertex -1.400000e+001 -2.500000e+001  6.000393e+000
    endloop
  endfacet
  facet normal  0.000000e+000  7.858276e-006  1.000000e+000
    outer loop
      vertex -1.400000e+001 -2.500000e+001  6.000393e+000
      vertex  1.400000e+001  2.500000e+001  6.000000e+000
      vertex -1.400000e+001  2.500000e+001  6.000000e+000
    endloop
  endfacet
  facet normal  0.000000e+000 -2.650519e-005 -1.000000e+000
    outer loop
      vertex -1.400000e+001 -2.500010e+001 -3.928021e-004
      vertex -1.400000e+001 -1.300010e+001 -7.108643e-004
      vertex  1.400000e+001 -2.500010e+001 -3.928021e-004
    endloop
  endfacet
  facet normal  0.000000e+000 -2.650519e-005 -1.000000e+000
    outer loop
      vertex  1.400000e+001 -2.500010e+001 -3.928021e-004
      vertex -1.400000e+001 -1.300010e+001 -7.108643e-004
      vertex  1.400000e+001 -1.300010e+001 -7.108643e-004
    endloop
  endfacet
  facet normal  -0.000000e+000 -3.090403e-001 -9.510489e-001
    outer loop
      vertex -1.400000e+001 -2.500010e+001 -3.928021e-004
      vertex  1.400000e+001 -2.500010e+001 -3.928021e-004
      vertex -1.400000e+001 -2.676367e+001  5.726714e-001
    endloop
  endfacet
  facet normal  0.000000e+000 -3.090403e-001 -9.510489e-001
    outer loop
      vertex -1.400000e+001 -2.676367e+001  5.726714e-001
      vertex  1.400000e+001 -2.500010e+001 -3.928021e-004
      vertex  1.400000e+001 -2.676367e+001  5.726714e-001
    endloop
  endfacet
  facet normal  -0.000000e+000 -8.090295e-001 -5.877681e-001
    outer loop
      vertex -1.400000e+001 -2.676367e+001  5.726714e-001
      vertex  1.400000e+001 -2.676367e+001  5.726714e-001
      vertex -1.400000e+001 -2.785358e+001  2.072882e+000
    endloop
  endfacet
  facet normal  0.000000e+000 -8.090295e-001 -5.877681e-001
    outer loop
      vertex -1.400000e+001 -2.785358e+001  2.072882e+000
      vertex  1.400000e+001 -2.676367e+001  5.726714e-001
      vertex  1.400000e+001 -2.785358e+001  2.072882e+000
    endloop
  endfacet
  facet normal  0.000000e+000 -1.000000e+000  1.748602e-005
    outer loop
      vertex -1.400000e+001 -2.785358e+001  2.072882e+000
      vertex  1.400000e+001 -2.785358e+001  2.072882e+000
      vertex -1.400000e+001 -2.785355e+001  3.927216e+000
    endloop
  endfacet
  facet normal  0.000000e+000 -1.000000e+000  1.748602e-005
    outer loop
      vertex -1.400000e+001 -2.785355e+001  3.927216e+000
      vertex  1.400000e+001 -2.785358e+001  2.072882e+000
      vertex  1.400000e+001 -2.785355e+001  3.927216e+000
    endloop
  endfacet
  facet normal  0.000000e+000 -8.090093e-001  5.877959e-001
    outer loop
      vertex -1.400000e+001 -2.785355e+001  3.927216e+000
      vertex  1.400000e+001 -2.785355e+001  3.927216e+000
      vertex -1.400000e+001 -2.676358e+001  5.427389e+000
    endloop
  endfacet
  facet normal  0.000000e+000 -8.090093e-001  5.877959e-001
    outer loop
      vertex -1.400000e+001 -2.676358e+001  5.427389e+000
      vertex  1.400000e+001 -2.785355e+001  3.927216e+000
      vertex  1.400000e+001 -2.676358e+001  5.427389e+000
    endloop
  endfacet
  facet normal  0.000000e+000 -3.090078e-001  9.510595e-001
    outer loop
      vertex -1.400000e+001 -2.676358e+001  5.427389e+000
      vertex  1.400000e+001 -2.676358e+001  5.427389e+000
      vertex -1.400000e+001 -2.500000e+001  6.000393e+000
    endloop
  endfacet
  facet normal  0.000000e+000 -3.090078e-001  9.510595e-001
    outer loop
      vertex -1.400000e+001 -2.500000e+001  6.000393e+000
      vertex  1.400000e+001 -2.676358e+001  5.427389e+000
      vertex  1.400000e+001 -2.500000e+001  6.000393e+000
    endloop
  endfacet
  facet normal  1.000000e+000  0.000000e+000  0.000000e+000
    outer loop
      vertex  1.500000e+001  1.305648e+001  4.350094e+000
      vertex  1.500000e+001  2.595452e+001  4.295525e+000
      vertex  1.500000e+001  2.559285e+001  4.804716e+000
    endloop
  endfacet
  facet normal  1.000000e+000  0.000000e+000  0.000000e+000
    outer loop
      vertex  1.500000e+001  1.305648e+001  4.350094e+000
      vertex  1.500000e+001  2.559285e+001  4.804716e+000
      vertex  1.500000e+001 -2.641450e+001  4.414509e+000
    endloop
  endfacet
  facet normal  1.000000e+000  0.000000e+000  0.000000e+000
    outer loop
      vertex  1.500000e+001  1.305648e+001  4.350094e+000
      vertex  1.500000e+001 -2.641450e+001  4.414509e+000
      vertex  1.500000e+001 -9.041404e+000  4.350094e+000
    endloop
  endfacet
  facet normal  1.000000e+000  0.000000e+000  -0.000000e+000
    outer loop
      vertex  1.500000e+001  2.496442e+001  3.000605e+000
      vertex  1.500000e+001  2.556417e+001  3.174900e+000
      vertex  1.500000e+001  2.594353e+001  3.671054e+000
    endloop
  endfacet
  facet normal  1.000000e+000  0.000000e+000  -0.000000e+000
    outer loop
      vertex  1.500000e+001  2.496442e+001  3.000605e+000
      vertex  1.500000e+001  2.594353e+001  3.671054e+000
      vertex  1.500000e+001  2.595452e+001  4.295525e+000
    endloop
  endfacet
  facet normal  1.000000e+000  0.000000e+000  0.000000e+000
    outer loop
      vertex  1.500000e+001  2.496442e+001  3.000605e+000
      vertex  1.500000e+001  2.595452e+001  4.295525e+000
      vertex  1.500000e+001  1.305648e+001  4.350094e+000
    endloop
  endfacet
  facet normal  1.000000e+000  0.000000e+000  0.000000e+000
    outer loop
      vertex  1.500000e+001 -2.641450e+001  4.414509e+000
      vertex  1.500000e+001  2.559285e+001  4.804716e+000
      vertex  1.500000e+001 -2.500001e+001  5.000393e+000
    endloop
  endfacet
  facet normal  1.000000e+000  0.000000e+000  0.000000e+000
    outer loop
      vertex  1.500000e+001 -2.500001e+001  5.000393e+000
      vertex  1.500000e+001  2.559285e+001  4.804716e+000
      vertex  1.500000e+001  2.499999e+001  5.000000e+000
    endloop
  endfacet
  facet normal  1.000000e+000  0.000000e+000  0.000000e+000
    outer loop
      vertex  1.500000e+001 -9.041404e+000  4.350094e+000
      vertex  1.500000e+001 -2.641450e+001  4.414509e+000
      vertex  1.500000e+001 -1.033502e+001  3.875395e+000
    endloop
  endfacet
  facet normal  1.000000e+000  0.000000e+000  0.000000e+000
    outer loop
      vertex  1.500000e+001 -1.033502e+001  3.875395e+000
      vertex  1.500000e+001 -2.641450e+001  4.414509e+000
      vertex  1.500000e+001 -2.700042e+001  3.000034e+000
    endloop
  endfacet
  facet normal  9.999999e-001  -0.000000e+000  0.000000e+000
    outer loop
      vertex  1.500000e+001 -1.033502e+001  3.875395e+000
      vertex  1.500000e+001 -2.700042e+001  3.000034e+000
      vertex  1.500000e+001 -1.101457e+001  2.676637e+000
    endloop
  endfacet
  facet normal  1.000000e+000  0.000000e+000  0.000000e+000
    outer loop
      vertex  1.500000e+001 -1.101457e+001  2.676637e+000
      vertex  1.500000e+001 -2.700042e+001  3.000034e+000
      vertex  1.500000e+001 -1.169806e+001  1.473078e+000
    endloop
  endfacet
  facet normal  1.000000e+000  0.000000e+000  0.000000e+000
    outer loop
      vertex  1.500000e+001 -1.169806e+001  1.473078e+000
      vertex  1.500000e+001 -2.700042e+001  3.000034e+000
      vertex  1.500000e+001 -2.641455e+001  1.585540e+000
    endloop
  endfacet
  facet normal  1.000000e+000  0.000000e+000  0.000000e+000
    outer loop
      vertex  1.500000e+001 -1.169806e+001  1.473078e+000
      vertex  1.500000e+001 -2.641455e+001  1.585540e+000
      vertex  1.500000e+001 -1.299854e+001  9.992891e-001
    endloop
  endfacet
  facet normal  1.000000e+000  0.000000e+000  0.000000e+000
    outer loop
      vertex  1.500000e+001 -1.299854e+001  9.992891e-001
      vertex  1.500000e+001 -2.641455e+001  1.585540e+000
      vertex  1.500000e+001 -2.500008e+001  9.996072e-001
    endloop
  endfacet
  facet normal  9.238795e-001 -4.309250e-002 -3.802496e-001
    outer loop
      vertex  1.500000e+001  2.496442e+001  3.000605e+000
      vertex  1.500000e+001  1.305648e+001  4.350094e+000
      vertex  1.470711e+001  2.488479e+001  2.297995e+000
    endloop
  endfacet
  facet normal  9.877071e-001 -2.657715e-003 -1.562933e-001
    outer loop
      vertex  1.470711e+001  2.488479e+001  2.297995e+000
      vertex  1.500000e+001  1.305648e+001  4.350094e+000
      vertex  1.495105e+001  1.303903e+001  4.041064e+000
    endloop
  endfacet
  facet normal  8.090010e-001 -6.923188e-002 -5.837160e-001
    outer loop
      vertex  1.470711e+001  2.488479e+001  2.297995e+000
      vertex  1.495105e+001  1.303903e+001  4.041064e+000
      vertex  1.458799e+001  1.301080e+001  3.541226e+000
    endloop
  endfacet
  facet normal  3.092173e-001 -1.020972e-001 -9.454950e-001
    outer loop
      vertex  1.458799e+001  1.301080e+001  3.541226e+000
      vertex  1.400000e+001  1.300000e+001  3.350094e+000
      vertex  1.470711e+001  2.488479e+001  2.297995e+000
    endloop
  endfacet
  facet normal  3.826834e-001 -1.040345e-001 -9.180034e-001
    outer loop
      vertex  1.470711e+001  2.488479e+001  2.297995e+000
      vertex  1.400000e+001  1.300000e+001  3.350094e+000
      vertex  1.400000e+001  2.485181e+001  2.006965e+000
    endloop
  endfacet
  facet normal  9.876873e-001  0.000000e+000 -1.564402e-001
    outer loop
      vertex  1.500000e+001  1.305648e+001  4.350094e+000
      vertex  1.500000e+001 -9.041404e+000  4.350094e+000
      vertex  1.495105e+001  1.303903e+001  4.041064e+000
    endloop
  endfacet
  facet normal  9.238744e-001 -3.307848e-003 -3.826815e-001
    outer loop
      vertex  1.495105e+001  1.303903e+001  4.041064e+000
      vertex  1.500000e+001 -9.041404e+000  4.350094e+000
      vertex  1.470711e+001 -9.041404e+000  3.642987e+000
    endloop
  endfacet
  facet normal  8.090414e-001  1.657902e-003 -5.877494e-001
    outer loop
      vertex  1.495105e+001  1.303903e+001  4.041064e+000
      vertex  1.470711e+001 -9.041404e+000  3.642987e+000
      vertex  1.458799e+001  1.301080e+001  3.541226e+000
    endloop
  endfacet
  facet normal  3.826834e-001  0.000000e+000 -9.238795e-001
    outer loop
      vertex  1.400000e+001 -9.041404e+000  3.350094e+000
      vertex  1.400000e+001  1.300000e+001  3.350094e+000
      vertex  1.470711e+001 -9.041404e+000  3.642987e+000
    endloop
  endfacet
  facet normal  3.091818e-001 -2.718367e-003 -9.509990e-001
    outer loop
      vertex  1.470711e+001 -9.041404e+000  3.642987e+000
      vertex  1.400000e+001  1.300000e+001  3.350094e+000
      vertex  1.458799e+001  1.301080e+001  3.541226e+000
    endloop
  endfacet
  facet normal  3.624228e-001  8.108017e-001 -4.596198e-001
    outer loop
      vertex  1.400000e+001 -1.002798e+001  2.513366e+000
      vertex  1.400000e+001 -9.688214e+000  3.112744e+000
      vertex  1.470711e+001 -1.031695e+001  2.561187e+000
    endloop
  endfacet
  facet normal  3.624224e-001  8.108016e-001 -4.596201e-001
    outer loop
      vertex  1.470711e+001 -1.031695e+001  2.561187e+000
      vertex  1.400000e+001 -9.688214e+000  3.112744e+000
      vertex  1.470711e+001 -9.877661e+000  3.336120e+000
    endloop
  endfacet
  facet normal  9.149027e-001  3.511750e-001 -1.990710e-001
    outer loop
      vertex  1.470711e+001 -1.031695e+001  2.561187e+000
      vertex  1.470711e+001 -9.877661e+000  3.336120e+000
      vertex  1.500000e+001 -1.101457e+001  2.676637e+000
    endloop
  endfacet
  facet normal  9.149026e-001  3.511750e-001 -1.990710e-001
    outer loop
      vertex  1.500000e+001 -1.101457e+001  2.676637e+000
      vertex  1.470711e+001 -9.877661e+000  3.336120e+000
      vertex  1.500000e+001 -1.033502e+001  3.875395e+000
    endloop
  endfacet
  facet normal  3.624225e-001  3.210715e-001 -8.749647e-001
    outer loop
      vertex  1.400000e+001 -9.688214e+000  3.112744e+000
      vertex  1.400000e+001 -9.041404e+000  3.350094e+000
      vertex  1.470711e+001 -9.877661e+000  3.336120e+000
    endloop
  endfacet
  facet normal  3.624223e-001  3.210713e-001 -8.749647e-001
    outer loop
      vertex  1.470711e+001 -9.877661e+000  3.336120e+000
      vertex  1.400000e+001 -9.041404e+000  3.350094e+000
      vertex  1.470711e+001 -9.041404e+000  3.642987e+000
    endloop
  endfacet
  facet normal  9.149026e-001  1.390626e-001 -3.789653e-001
    outer loop
      vertex  1.470711e+001 -9.877661e+000  3.336120e+000
      vertex  1.470711e+001 -9.041404e+000  3.642987e+000
      vertex  1.500000e+001 -1.033502e+001  3.875395e+000
    endloop
  endfacet
  facet normal  9.149026e-001  1.390627e-001 -3.789653e-001
    outer loop
      vertex  1.500000e+001 -1.033502e+001  3.875395e+000
      vertex  1.470711e+001 -9.041404e+000  3.642987e+000
      vertex  1.500000e+001 -9.041404e+000  4.350094e+000
    endloop
  endfacet
  facet normal  9.148603e-001  3.511043e-001 -1.993901e-001
    outer loop
      vertex  1.500000e+001 -1.101457e+001  2.676637e+000
      vertex  1.500000e+001 -1.169806e+001  1.473078e+000
      vertex  1.470711e+001 -1.031695e+001  2.561187e+000
    endloop
  endfacet
  facet normal  9.148601e-001  3.511046e-001 -1.993905e-001
    outer loop
      vertex  1.470711e+001 -1.031695e+001  2.561187e+000
      vertex  1.500000e+001 -1.169806e+001  1.473078e+000
      vertex  1.470711e+001 -1.124153e+001  9.330942e-001
    endloop
  endfacet
  facet normal  3.623332e-001  8.104758e-001 -4.602650e-001
    outer loop
      vertex  1.470711e+001 -1.031695e+001  2.561187e+000
      vertex  1.470711e+001 -1.124153e+001  9.330942e-001
      vertex  1.400000e+001 -1.002798e+001  2.513366e+000
    endloop
  endfacet
  facet normal  3.626217e-001  8.104368e-001 -4.601060e-001
    outer loop
      vertex  1.400000e+001 -1.002798e+001  2.513366e+000
      vertex  1.470711e+001 -1.124153e+001  9.330942e-001
      vertex  1.400000e+001 -1.105185e+001  7.099217e-001
    endloop
  endfacet
  facet normal  9.148601e-001  1.382143e-001 -3.793781e-001
    outer loop
      vertex  1.500000e+001 -1.169806e+001  1.473078e+000
      vertex  1.500000e+001 -1.299854e+001  9.992891e-001
      vertex  1.470711e+001 -1.124153e+001  9.330942e-001
    endloop
  endfacet
  facet normal  9.550229e-001  1.495556e-001 -2.560554e-001
    outer loop
      vertex  1.470711e+001 -1.124153e+001  9.330942e-001
      vertex  1.500000e+001 -1.299854e+001  9.992891e-001
      vertex  1.486602e+001 -1.299907e+001  4.992891e-001
    endloop
  endfacet
  facet normal  6.876506e-001  2.319899e-001 -6.879805e-001
    outer loop
      vertex  1.470711e+001 -1.124153e+001  9.330942e-001
      vertex  1.486602e+001 -1.299907e+001  4.992891e-001
      vertex  1.450000e+001 -1.299959e+001  1.332637e-001
    endloop
  endfacet
  facet normal  2.391877e-001  3.786039e-001 -8.941187e-001
    outer loop
      vertex  1.450000e+001 -1.299959e+001  1.332637e-001
      vertex  1.400000e+001 -1.300010e+001 -7.108643e-004
      vertex  1.470711e+001 -1.124153e+001  9.330942e-001
    endloop
  endfacet
  facet normal  3.620737e-001  3.194192e-001 -8.757134e-001
    outer loop
      vertex  1.470711e+001 -1.124153e+001  9.330942e-001
      vertex  1.400000e+001 -1.300010e+001 -7.108643e-004
      vertex  1.400000e+001 -1.105185e+001  7.099217e-001
    endloop
  endfacet
  facet normal  3.826835e-001 -2.448760e-005 -9.238794e-001
    outer loop
      vertex  1.400000e+001 -2.500010e+001 -3.928021e-004
      vertex  1.400000e+001 -1.300010e+001 -7.108643e-004
      vertex  1.470711e+001 -2.500010e+001  2.925004e-001
    endloop
  endfacet
  facet normal  2.588181e-001 -8.349829e-003 -9.658900e-001
    outer loop
      vertex  1.470711e+001 -2.500010e+001  2.925004e-001
      vertex  1.400000e+001 -1.300010e+001 -7.108643e-004
      vertex  1.450000e+001 -1.299959e+001  1.332637e-001
    endloop
  endfacet
  facet normal  7.071024e-001  2.820582e-003 -7.071056e-001
    outer loop
      vertex  1.470711e+001 -2.500010e+001  2.925004e-001
      vertex  1.450000e+001 -1.299959e+001  1.332637e-001
      vertex  1.486602e+001 -1.299907e+001  4.992891e-001
    endloop
  endfacet
  facet normal  9.658943e-001 -8.331026e-003 -2.588027e-001
    outer loop
      vertex  1.486602e+001 -1.299907e+001  4.992891e-001
      vertex  1.500000e+001 -1.299854e+001  9.992891e-001
      vertex  1.470711e+001 -2.500010e+001  2.925004e-001
    endloop
  endfacet
  facet normal  9.238794e-001 -1.014523e-005 -3.826836e-001
    outer loop
      vertex  1.470711e+001 -2.500010e+001  2.925004e-001
      vertex  1.500000e+001 -1.299854e+001  9.992891e-001
      vertex  1.500000e+001 -2.500008e+001  9.996072e-001
    endloop
  endfacet
  facet normal  9.168193e-001 -1.234006e-001 -3.797559e-001
    outer loop
      vertex  1.500000e+001 -2.500008e+001  9.996072e-001
      vertex  1.470711e+001 -2.659150e+001  8.096231e-001
      vertex  1.470711e+001 -2.500010e+001  2.925004e-001
    endloop
  endfacet
  facet normal  9.368462e-001 -1.338481e-001 -3.231157e-001
    outer loop
      vertex  1.500000e+001 -2.500008e+001  9.996072e-001
      vertex  1.500000e+001 -2.641455e+001  1.585540e+000
      vertex  1.470711e+001 -2.659150e+001  8.096231e-001
    endloop
  endfacet
  facet normal  9.368463e-001 -1.338370e-001  3.231203e-001
    outer loop
      vertex  1.500000e+001 -2.500001e+001  5.000393e+000
      vertex  1.470711e+001 -2.659143e+001  5.190432e+000
      vertex  1.500000e+001 -2.641450e+001  4.414509e+000
    endloop
  endfacet
  facet normal  9.168193e-001 -1.233874e-001  3.797603e-001
    outer loop
      vertex  1.500000e+001 -2.500001e+001  5.000393e+000
      vertex  1.470711e+001 -2.500000e+001  5.707500e+000
      vertex  1.470711e+001 -2.659143e+001  5.190432e+000
    endloop
  endfacet
  facet normal  9.455662e-001 -3.006560e-001  1.245409e-001
    outer loop
      vertex  1.470711e+001 -2.757500e+001  3.836703e+000
      vertex  1.500000e+001 -2.700042e+001  3.000034e+000
      vertex  1.500000e+001 -2.641450e+001  4.414509e+000
    endloop
  endfacet
  facet normal  8.984195e-001 -3.552670e-001  2.581236e-001
    outer loop
      vertex  1.470711e+001 -2.757500e+001  3.836703e+000
      vertex  1.500000e+001 -2.641450e+001  4.414509e+000
      vertex  1.470711e+001 -2.659143e+001  5.190432e+000
    endloop
  endfacet
  facet normal  9.455665e-001 -3.006596e-001 -1.245304e-001
    outer loop
      vertex  1.470711e+001 -2.757503e+001  2.163386e+000
      vertex  1.500000e+001 -2.641455e+001  1.585540e+000
      vertex  1.500000e+001 -2.700042e+001  3.000034e+000
    endloop
  endfacet
  facet normal  8.909294e-001 -4.541418e-001  8.282535e-006
    outer loop
      vertex  1.470711e+001 -2.757503e+001  2.163386e+000
      vertex  1.500000e+001 -2.700042e+001  3.000034e+000
      vertex  1.470711e+001 -2.757500e+001  3.836703e+000
    endloop
  endfacet
  facet normal  8.984196e-001 -3.552752e-001 -2.581116e-001
    outer loop
      vertex  1.470711e+001 -2.659150e+001  8.096231e-001
      vertex  1.500000e+001 -2.641455e+001  1.585540e+000
      vertex  1.470711e+001 -2.757503e+001  2.163386e+000
    endloop
  endfacet
  facet normal  3.665260e-001 -2.875030e-001  8.848732e-001
    outer loop
      vertex  1.470711e+001 -2.500000e+001  5.707500e+000
      vertex  1.400000e+001 -2.500000e+001  6.000393e+000
      vertex  1.470711e+001 -2.659143e+001  5.190432e+000
    endloop
  endfacet
  facet normal  3.665256e-001 -2.875033e-001  8.848733e-001
    outer loop
      vertex  1.470711e+001 -2.659143e+001  5.190432e+000
      vertex  1.400000e+001 -2.500000e+001  6.000393e+000
      vertex  1.400000e+001 -2.676358e+001  5.427389e+000
    endloop
  endfacet
  facet normal  3.665255e-001 -7.527089e-001  5.468899e-001
    outer loop
      vertex  1.470711e+001 -2.659143e+001  5.190432e+000
      vertex  1.400000e+001 -2.676358e+001  5.427389e+000
      vertex  1.470711e+001 -2.757500e+001  3.836703e+000
    endloop
  endfacet
  facet normal  3.665259e-001 -7.527086e-001  5.468899e-001
    outer loop
      vertex  1.470711e+001 -2.757500e+001  3.836703e+000
      vertex  1.400000e+001 -2.676358e+001  5.427389e+000
      vertex  1.400000e+001 -2.785355e+001  3.927216e+000
    endloop
  endfacet
  facet normal  3.665261e-001 -9.304078e-001  1.696857e-005
    outer loop
      vertex  1.470711e+001 -2.757500e+001  3.836703e+000
      vertex  1.400000e+001 -2.785355e+001  3.927216e+000
      vertex  1.470711e+001 -2.757503e+001  2.163386e+000
    endloop
  endfacet
  facet normal  3.665245e-001 -9.304084e-001  1.626914e-005
    outer loop
      vertex  1.470711e+001 -2.757503e+001  2.163386e+000
      vertex  1.400000e+001 -2.785355e+001  3.927216e+000
      vertex  1.400000e+001 -2.785358e+001  2.072882e+000
    endloop
  endfacet
  facet normal  3.665247e-001 -7.527272e-001 -5.468650e-001
    outer loop
      vertex  1.470711e+001 -2.757503e+001  2.163386e+000
      vertex  1.400000e+001 -2.785358e+001  2.072882e+000
      vertex  1.470711e+001 -2.659150e+001  8.096231e-001
    endloop
  endfacet
  facet normal  3.665268e-001 -7.527271e-001 -5.468639e-001
    outer loop
      vertex  1.470711e+001 -2.659150e+001  8.096231e-001
      vertex  1.400000e+001 -2.785358e+001  2.072882e+000
      vertex  1.400000e+001 -2.676367e+001  5.726714e-001
    endloop
  endfacet
  facet normal  3.665261e-001 -2.875337e-001 -8.848633e-001
    outer loop
      vertex  1.470711e+001 -2.659150e+001  8.096231e-001
      vertex  1.400000e+001 -2.676367e+001  5.726714e-001
      vertex  1.470711e+001 -2.500010e+001  2.925004e-001
    endloop
  endfacet
  facet normal  3.665257e-001 -2.875336e-001 -8.848636e-001
    outer loop
      vertex  1.470711e+001 -2.500010e+001  2.925004e-001
      vertex  1.400000e+001 -2.676367e+001  5.726714e-001
      vertex  1.400000e+001 -2.500010e+001 -3.928021e-004
    endloop
  endfacet
  facet normal  9.238794e-001  3.007234e-006  3.826837e-001
    outer loop
      vertex  1.500000e+001 -2.500001e+001  5.000393e+000
      vertex  1.500000e+001  2.499999e+001  5.000000e+000
      vertex  1.470711e+001 -2.500000e+001  5.707500e+000
    endloop
  endfacet
  facet normal  9.238794e-001  3.007242e-006  3.826837e-001
    outer loop
      vertex  1.470711e+001 -2.500000e+001  5.707500e+000
      vertex  1.500000e+001  2.499999e+001  5.000000e+000
      vertex  1.470711e+001  2.499988e+001  5.707107e+000
    endloop
  endfacet
  facet normal  3.826837e-001  7.260116e-006  9.238794e-001
    outer loop
      vertex  1.470711e+001 -2.500000e+001  5.707500e+000
      vertex  1.470711e+001  2.499988e+001  5.707107e+000
      vertex  1.400000e+001 -2.500000e+001  6.000393e+000
    endloop
  endfacet
  facet normal  3.826837e-001  7.260099e-006  9.238794e-001
    outer loop
      vertex  1.400000e+001 -2.500000e+001  6.000393e+000
      vertex  1.470711e+001  2.499988e+001  5.707107e+000
      vertex  1.400000e+001  2.500000e+001  6.000000e+000
    endloop
  endfacet
  facet normal  5.101016e-001  7.872479e-001 -3.464635e-001
    outer loop
      vertex  1.400000e+001  2.688788e+001  3.342107e+000
      vertex  1.470711e+001  2.670603e+001  3.969971e+000
      vertex  1.470711e+001  2.617428e+001  2.761704e+000
    endloop
  endfacet
  facet normal  9.290687e-001  2.938529e-001 -2.246815e-001
    outer loop
      vertex  1.470711e+001  2.617428e+001  2.761704e+000
      vertex  1.500000e+001  2.594353e+001  3.671054e+000
      vertex  1.500000e+001  2.556417e+001  3.174900e+000
    endloop
  endfacet
  facet normal  8.993824e-001  1.549087e-001 -4.087965e-001
    outer loop
      vertex  1.470711e+001  2.617428e+001  2.761704e+000
      vertex  1.500000e+001  2.556417e+001  3.174900e+000
      vertex  1.470711e+001  2.493983e+001  2.293926e+000
    endloop
  endfacet
  facet normal  5.101033e-001  7.989467e-001  3.185574e-001
    outer loop
      vertex  1.400000e+001  2.690986e+001  4.591049e+000
      vertex  1.470711e+001  2.621711e+001  5.196195e+000
      vertex  1.470711e+001  2.670603e+001  3.969971e+000
    endloop
  endfacet
  facet normal  2.631481e-001  9.646062e-001 -1.697181e-002
    outer loop
      vertex  1.400000e+001  2.690986e+001  4.591049e+000
      vertex  1.470711e+001  2.670603e+001  3.969971e+000
      vertex  1.400000e+001  2.688788e+001  3.342107e+000
    endloop
  endfacet
  facet normal  9.326445e-001  3.607410e-001 -6.346522e-003
    outer loop
      vertex  1.470711e+001  2.670603e+001  3.969971e+000
      vertex  1.500000e+001  2.595452e+001  4.295525e+000
      vertex  1.500000e+001  2.594353e+001  3.671054e+000
    endloop
  endfacet
  facet normal  8.918498e-001  4.140115e-001 -1.822042e-001
    outer loop
      vertex  1.470711e+001  2.670603e+001  3.969971e+000
      vertex  1.500000e+001  2.594353e+001  3.671054e+000
      vertex  1.470711e+001  2.617428e+001  2.761704e+000
    endloop
  endfacet
  facet normal  4.628275e-001  3.430770e-001  8.173671e-001
    outer loop
      vertex  1.400000e+001  2.618651e+001  5.609432e+000
      vertex  1.470711e+001  2.499988e+001  5.707107e+000
      vertex  1.470711e+001  2.621711e+001  5.196195e+000
    endloop
  endfacet
  facet normal  2.901016e-001  7.802101e-001  5.541779e-001
    outer loop
      vertex  1.400000e+001  2.618651e+001  5.609432e+000
      vertex  1.470711e+001  2.621711e+001  5.196195e+000
      vertex  1.400000e+001  2.690986e+001  4.591049e+000
    endloop
  endfacet
  facet normal  8.918497e-001  4.201645e-001  1.675287e-001
    outer loop
      vertex  1.470711e+001  2.621711e+001  5.196195e+000
      vertex  1.500000e+001  2.595452e+001  4.295525e+000
      vertex  1.470711e+001  2.670603e+001  3.969971e+000
    endloop
  endfacet
  facet normal  3.661698e-001  2.909548e-001  8.838919e-001
    outer loop
      vertex  1.400000e+001  2.500000e+001  6.000000e+000
      vertex  1.470711e+001  2.499988e+001  5.707107e+000
      vertex  1.400000e+001  2.618651e+001  5.609432e+000
    endloop
  endfacet
  facet normal  9.166550e-001  1.115362e-001 -3.838013e-001
    outer loop
      vertex  1.500000e+001  2.496442e+001  3.000605e+000
      vertex  1.470711e+001  2.493983e+001  2.293926e+000
      vertex  1.500000e+001  2.556417e+001  3.174900e+000
    endloop
  endfacet
  facet normal  9.121767e-001  1.586014e-001  3.778616e-001
    outer loop
      vertex  1.470711e+001  2.499988e+001  5.707107e+000
      vertex  1.500000e+001  2.499999e+001  5.000000e+000
      vertex  1.470711e+001  2.621711e+001  5.196195e+000
    endloop
  endfacet
  facet normal  8.885058e-001  1.435608e-001  4.358298e-001
    outer loop
      vertex  1.470711e+001  2.621711e+001  5.196195e+000
      vertex  1.500000e+001  2.499999e+001  5.000000e+000
      vertex  1.500000e+001  2.559285e+001  4.804716e+000
    endloop
  endfacet
  facet normal  9.290687e-001  3.015744e-001  2.142063e-001
    outer loop
      vertex  1.470711e+001  2.621711e+001  5.196195e+000
      vertex  1.500000e+001  2.559285e+001  4.804716e+000
      vertex  1.500000e+001  2.595452e+001  4.295525e+000
    endloop
  endfacet
  facet normal  3.568490e-001  3.310204e-001 -8.735469e-001
    outer loop
      vertex  1.470711e+001  2.493983e+001  2.293926e+000
      vertex  1.400000e+001  2.492965e+001  2.001209e+000
      vertex  1.470711e+001  2.617428e+001  2.761704e+000
    endloop
  endfacet
  facet normal  4.762197e-001  2.453889e-001 -8.443927e-001
    outer loop
      vertex  1.470711e+001  2.617428e+001  2.761704e+000
      vertex  1.400000e+001  2.492965e+001  2.001209e+000
      vertex  1.400000e+001  2.612916e+001  2.349799e+000
    endloop
  endfacet
  facet normal  2.900997e-001  7.602344e-001 -5.812794e-001
    outer loop
      vertex  1.470711e+001  2.617428e+001  2.761704e+000
      vertex  1.400000e+001  2.612916e+001  2.349799e+000
      vertex  1.400000e+001  2.688788e+001  3.342107e+000
    endloop
  endfacet
  facet normal  3.824345e-001 -6.813794e-002 -9.214668e-001
    outer loop
      vertex  1.400000e+001  2.485181e+001  2.006965e+000
      vertex  1.400000e+001  2.492965e+001  2.001209e+000
      vertex  1.470711e+001  2.488479e+001  2.297995e+000
    endloop
  endfacet
  facet normal  3.824345e-001 -6.813765e-002 -9.214668e-001
    outer loop
      vertex  1.470711e+001  2.488479e+001  2.297995e+000
      vertex  1.400000e+001  2.492965e+001  2.001209e+000
      vertex  1.470711e+001  2.493983e+001  2.293926e+000
    endloop
  endfacet
  facet normal  9.237763e-001 -2.823876e-002 -3.818900e-001
    outer loop
      vertex  1.470711e+001  2.488479e+001  2.297995e+000
      vertex  1.470711e+001  2.493983e+001  2.293926e+000
      vertex  1.500000e+001  2.496442e+001  3.000605e+000
    endloop
  endfacet
  facet normal -1.000000e+000  0.000000e+000  0.000000e+000
    outer loop
      vertex -1.500000e+001  1.305648e+001  4.350094e+000
      vertex -1.500000e+001 -9.041404e+000  4.350094e+000
      vertex -1.500000e+001 -2.641450e+001  4.414509e+000
    endloop
  endfacet
  facet normal -1.000000e+000  0.000000e+000  0.000000e+000
    outer loop
      vertex -1.500000e+001  1.305648e+001  4.350094e+000
      vertex -1.500000e+001 -2.641450e+001  4.414509e+000
      vertex -1.500000e+001  2.559285e+001  4.804716e+000
    endloop
  endfacet
  facet normal -1.000000e+000  0.000000e+000  -0.000000e+000
    outer loop
      vertex -1.500000e+001  1.305648e+001  4.350094e+000
      vertex -1.500000e+001  2.559285e+001  4.804716e+000
      vertex -1.500000e+001  2.595452e+001  4.295525e+000
    endloop
  endfacet
  facet normal -1.000000e+000  0.000000e+000  0.000000e+000
    outer loop
      vertex -1.500000e+001  2.496442e+001  3.000605e+000
      vertex -1.500000e+001  1.305648e+001  4.350094e+000
      vertex -1.500000e+001  2.595452e+001  4.295525e+000
    endloop
  endfacet
  facet normal -1.000000e+000  0.000000e+000  0.000000e+000
    outer loop
      vertex -1.500000e+001  2.496442e+001  3.000605e+000
      vertex -1.500000e+001  2.595452e+001  4.295525e+000
      vertex -1.500000e+001  2.594353e+001  3.671054e+000
    endloop
  endfacet
  facet normal -1.000000e+000  0.000000e+000  0.000000e+000
    outer loop
      vertex -1.500000e+001  2.496442e+001  3.000605e+000
      vertex -1.500000e+001  2.594353e+001  3.671054e+000
      vertex -1.500000e+001  2.556417e+001  3.174900e+000
    endloop
  endfacet
  facet normal -1.000000e+000  0.000000e+000  -0.000000e+000
    outer loop
      vertex -1.500000e+001 -2.641450e+001  4.414509e+000
      vertex -1.500000e+001 -2.500001e+001  5.000393e+000
      vertex -1.500000e+001  2.559285e+001  4.804716e+000
    endloop
  endfacet
  facet normal -1.000000e+000  0.000000e+000  0.000000e+000
    outer loop
      vertex -1.500000e+001  2.559285e+001  4.804716e+000
      vertex -1.500000e+001 -2.500001e+001  5.000393e+000
      vertex -1.500000e+001  2.499999e+001  5.000000e+000
    endloop
  endfacet
  facet normal -9.999999e-001  0.000000e+000  0.000000e+000
    outer loop
      vertex -1.500000e+001 -1.101457e+001  2.676637e+000
      vertex -1.500000e+001 -2.700042e+001  3.000034e+000
      vertex -1.500000e+001 -1.033502e+001  3.875395e+000
    endloop
  endfacet
  facet normal -1.000000e+000  -0.000000e+000  0.000000e+000
    outer loop
      vertex -1.500000e+001 -1.033502e+001  3.875395e+000
      vertex -1.500000e+001 -2.700042e+001  3.000034e+000
      vertex -1.500000e+001 -2.641450e+001  4.414509e+000
    endloop
  endfacet
  facet normal -1.000000e+000  0.000000e+000  0.000000e+000
    outer loop
      vertex -1.500000e+001 -1.033502e+001  3.875395e+000
      vertex -1.500000e+001 -2.641450e+001  4.414509e+000
      vertex -1.500000e+001 -9.041404e+000  4.350094e+000
    endloop
  endfacet
  facet normal -1.000000e+000  0.000000e+000  0.000000e+000
    outer loop
      vertex -1.500000e+001 -1.101457e+001  2.676637e+000
      vertex -1.500000e+001 -1.169806e+001  1.473078e+000
      vertex -1.500000e+001 -2.700042e+001  3.000034e+000
    endloop
  endfacet
  facet normal -1.000000e+000  0.000000e+000  0.000000e+000
    outer loop
      vertex -1.500000e+001 -2.700042e+001  3.000034e+000
      vertex -1.500000e+001 -1.169806e+001  1.473078e+000
      vertex -1.500000e+001 -2.641455e+001  1.585540e+000
    endloop
  endfacet
  facet normal -1.000000e+000  0.000000e+000  0.000000e+000
    outer loop
      vertex -1.500000e+001 -1.169806e+001  1.473078e+000
      vertex -1.500000e+001 -1.299854e+001  9.992891e-001
      vertex -1.500000e+001 -2.641455e+001  1.585540e+000
    endloop
  endfacet
  facet normal -1.000000e+000  0.000000e+000  0.000000e+000
    outer loop
      vertex -1.500000e+001 -2.641455e+001  1.585540e+000
      vertex -1.500000e+001 -1.299854e+001  9.992891e-001
      vertex -1.500000e+001 -2.500008e+001  9.996072e-001
    endloop
  endfacet
  facet normal -3.826834e-001 -1.040345e-001 -9.180034e-001
    outer loop
      vertex -1.400000e+001  2.485181e+001  2.006965e+000
      vertex -1.400000e+001  1.300000e+001  3.350094e+000
      vertex -1.470711e+001  2.488479e+001  2.297995e+000
    endloop
  endfacet
  facet normal -3.462968e-001 -1.031473e-001 -9.324371e-001
    outer loop
      vertex -1.470711e+001  2.488479e+001  2.297995e+000
      vertex -1.400000e+001  1.300000e+001  3.350094e+000
      vertex -1.464967e+001  1.301354e+001  3.589875e+000
    endloop
  endfacet
  facet normal -8.724959e-001 -5.703200e-002 -4.852815e-001
    outer loop
      vertex -1.470711e+001  2.488479e+001  2.297995e+000
      vertex -1.464967e+001  1.301354e+001  3.589875e+000
      vertex -1.498768e+001  1.304764e+001  4.193579e+000
    endloop
  endfacet
  facet normal -9.969142e-001 -8.839512e-003 -7.800014e-002
    outer loop
      vertex -1.500000e+001  1.305648e+001  4.350094e+000
      vertex -1.500000e+001  2.496442e+001  3.000605e+000
      vertex -1.498768e+001  1.304764e+001  4.193579e+000
    endloop
  endfacet
  facet normal -9.238719e-001 -3.906716e-002 -3.807026e-001
    outer loop
      vertex -1.498768e+001  1.304764e+001  4.193579e+000
      vertex -1.500000e+001  2.496442e+001  3.000605e+000
      vertex -1.470711e+001  2.488479e+001  2.297995e+000
    endloop
  endfacet
  facet normal -3.462520e-001  0.000000e+000 -9.381416e-001
    outer loop
      vertex -1.400000e+001  1.300000e+001  3.350094e+000
      vertex -1.400000e+001 -9.041404e+000  3.350094e+000
      vertex -1.464967e+001  1.301354e+001  3.589875e+000
    endloop
  endfacet
  facet normal -3.826832e-001 -1.228207e-003 -9.238788e-001
    outer loop
      vertex -1.464967e+001  1.301354e+001  3.589875e+000
      vertex -1.400000e+001 -9.041404e+000  3.350094e+000
      vertex -1.470711e+001 -9.041404e+000  3.642987e+000
    endloop
  endfacet
  facet normal -8.725196e-001  1.095803e-003 -4.885780e-001
    outer loop
      vertex -1.464967e+001  1.301354e+001  3.589875e+000
      vertex -1.470711e+001 -9.041404e+000  3.642987e+000
      vertex -1.498768e+001  1.304764e+001  4.193579e+000
    endloop
  endfacet
  facet normal -9.969142e-001  0.000000e+000 -7.849938e-002
    outer loop
      vertex -1.500000e+001  1.305648e+001  4.350094e+000
      vertex -1.498768e+001  1.304764e+001  4.193579e+000
      vertex -1.500000e+001 -9.041404e+000  4.350094e+000
    endloop
  endfacet
  facet normal -9.238772e-001 -2.196078e-003 -3.826827e-001
    outer loop
      vertex -1.500000e+001 -9.041404e+000  4.350094e+000
      vertex -1.498768e+001  1.304764e+001  4.193579e+000
      vertex -1.470711e+001 -9.041404e+000  3.642987e+000
    endloop
  endfacet
  facet normal -9.149027e-001  3.511750e-001 -1.990710e-001
    outer loop
      vertex -1.500000e+001 -1.101457e+001  2.676637e+000
      vertex -1.500000e+001 -1.033502e+001  3.875395e+000
      vertex -1.470711e+001 -1.031695e+001  2.561187e+000
    endloop
  endfacet
  facet normal -9.149026e-001  3.511750e-001 -1.990710e-001
    outer loop
      vertex -1.470711e+001 -1.031695e+001  2.561187e+000
      vertex -1.500000e+001 -1.033502e+001  3.875395e+000
      vertex -1.470711e+001 -9.877661e+000  3.336120e+000
    endloop
  endfacet
  facet normal -3.624228e-001  8.108016e-001 -4.596201e-001
    outer loop
      vertex -1.470711e+001 -1.031695e+001  2.561187e+000
      vertex -1.470711e+001 -9.877661e+000  3.336120e+000
      vertex -1.400000e+001 -1.002798e+001  2.513366e+000
    endloop
  endfacet
  facet normal -3.624224e-001  8.108018e-001 -4.596198e-001
    outer loop
      vertex -1.400000e+001 -1.002798e+001  2.513366e+000
      vertex -1.470711e+001 -9.877661e+000  3.336120e+000
      vertex -1.400000e+001 -9.688214e+000  3.112744e+000
    endloop
  endfacet
  facet normal -9.149026e-001  1.390627e-001 -3.789653e-001
    outer loop
      vertex -1.500000e+001 -1.033502e+001  3.875395e+000
      vertex -1.500000e+001 -9.041404e+000  4.350094e+000
      vertex -1.470711e+001 -9.877661e+000  3.336120e+000
    endloop
  endfacet
  facet normal -9.149026e-001  1.390626e-001 -3.789653e-001
    outer loop
      vertex -1.470711e+001 -9.877661e+000  3.336120e+000
      vertex -1.500000e+001 -9.041404e+000  4.350094e+000
      vertex -1.470711e+001 -9.041404e+000  3.642987e+000
    endloop
  endfacet
  facet normal -3.624225e-001  3.210713e-001 -8.749647e-001
    outer loop
      vertex -1.470711e+001 -9.877661e+000  3.336120e+000
      vertex -1.470711e+001 -9.041404e+000  3.642987e+000
      vertex -1.400000e+001 -9.688214e+000  3.112744e+000
    endloop
  endfacet
  facet normal -3.624223e-001  3.210715e-001 -8.749647e-001
    outer loop
      vertex -1.400000e+001 -9.688214e+000  3.112744e+000
      vertex -1.470711e+001 -9.041404e+000  3.642987e+000
      vertex -1.400000e+001 -9.041404e+000  3.350094e+000
    endloop
  endfacet
  facet normal -3.623480e-001  8.105294e-001 -4.601586e-001
    outer loop
      vertex -1.400000e+001 -1.002798e+001  2.513366e+000
      vertex -1.400000e+001 -1.105185e+001  7.099217e-001
      vertex -1.470711e+001 -1.031695e+001  2.561187e+000
    endloop
  endfacet
  facet normal -3.626364e-001  8.103731e-001 -4.602067e-001
    outer loop
      vertex -1.470711e+001 -1.031695e+001  2.561187e+000
      vertex -1.400000e+001 -1.105185e+001  7.099217e-001
      vertex -1.470711e+001 -1.124153e+001  9.330942e-001
    endloop
  endfacet
  facet normal -9.148602e-001  3.511043e-001 -1.993903e-001
    outer loop
      vertex -1.470711e+001 -1.031695e+001  2.561187e+000
      vertex -1.470711e+001 -1.124153e+001  9.330942e-001
      vertex -1.500000e+001 -1.101457e+001  2.676637e+000
    endloop
  endfacet
  facet normal -9.148601e-001  3.511047e-001 -1.993903e-001
    outer loop
      vertex -1.500000e+001 -1.101457e+001  2.676637e+000
      vertex -1.470711e+001 -1.124153e+001  9.330942e-001
      vertex -1.500000e+001 -1.169806e+001  1.473078e+000
    endloop
  endfacet
  facet normal -3.620737e-001  3.194192e-001 -8.757134e-001
    outer loop
      vertex -1.400000e+001 -1.105185e+001  7.099217e-001
      vertex -1.400000e+001 -1.300010e+001 -7.108643e-004
      vertex -1.470711e+001 -1.124153e+001  9.330942e-001
    endloop
  endfacet
  facet normal -2.391876e-001  3.786040e-001 -8.941187e-001
    outer loop
      vertex -1.470711e+001 -1.124153e+001  9.330942e-001
      vertex -1.400000e+001 -1.300010e+001 -7.108643e-004
      vertex -1.450000e+001 -1.299959e+001  1.332637e-001
    endloop
  endfacet
  facet normal -6.876506e-001  2.319899e-001 -6.879805e-001
    outer loop
      vertex -1.470711e+001 -1.124153e+001  9.330942e-001
      vertex -1.450000e+001 -1.299959e+001  1.332637e-001
      vertex -1.486602e+001 -1.299907e+001  4.992891e-001
    endloop
  endfacet
  facet normal -9.550229e-001  1.495556e-001 -2.560554e-001
    outer loop
      vertex -1.486602e+001 -1.299907e+001  4.992891e-001
      vertex -1.500000e+001 -1.299854e+001  9.992891e-001
      vertex -1.470711e+001 -1.124153e+001  9.330942e-001
    endloop
  endfacet
  facet normal -9.148601e-001  1.382143e-001 -3.793781e-001
    outer loop
      vertex -1.470711e+001 -1.124153e+001  9.330942e-001
      vertex -1.500000e+001 -1.299854e+001  9.992891e-001
      vertex -1.500000e+001 -1.169806e+001  1.473078e+000
    endloop
  endfacet
  facet normal -9.238794e-001 -1.014333e-005 -3.826836e-001
    outer loop
      vertex -1.500000e+001 -2.500008e+001  9.996072e-001
      vertex -1.500000e+001 -1.299854e+001  9.992891e-001
      vertex -1.470711e+001 -2.500010e+001  2.925004e-001
    endloop
  endfacet
  facet normal -9.658943e-001 -8.331025e-003 -2.588027e-001
    outer loop
      vertex -1.470711e+001 -2.500010e+001  2.925004e-001
      vertex -1.500000e+001 -1.299854e+001  9.992891e-001
      vertex -1.486602e+001 -1.299907e+001  4.992891e-001
    endloop
  endfacet
  facet normal -7.071024e-001  2.820581e-003 -7.071056e-001
    outer loop
      vertex -1.470711e+001 -2.500010e+001  2.925004e-001
      vertex -1.486602e+001 -1.299907e+001  4.992891e-001
      vertex -1.450000e+001 -1.299959e+001  1.332637e-001
    endloop
  endfacet
  facet normal -2.588180e-001 -8.349831e-003 -9.658900e-001
    outer loop
      vertex -1.450000e+001 -1.299959e+001  1.332637e-001
      vertex -1.400000e+001 -1.300010e+001 -7.108643e-004
      vertex -1.470711e+001 -2.500010e+001  2.925004e-001
    endloop
  endfacet
  facet normal -3.826835e-001 -2.448898e-005 -9.238794e-001
    outer loop
      vertex -1.470711e+001 -2.500010e+001  2.925004e-001
      vertex -1.400000e+001 -1.300010e+001 -7.108643e-004
      vertex -1.400000e+001 -2.500010e+001 -3.928021e-004
    endloop
  endfacet
  facet normal -9.168193e-001 -1.233874e-001  3.797603e-001
    outer loop
      vertex -1.500000e+001 -2.500001e+001  5.000393e+000
      vertex -1.470711e+001 -2.659143e+001  5.190432e+000
      vertex -1.470711e+001 -2.500000e+001  5.707500e+000
    endloop
  endfacet
  facet normal -9.368463e-001 -1.338370e-001  3.231203e-001
    outer loop
      vertex -1.500000e+001 -2.500001e+001  5.000393e+000
      vertex -1.500000e+001 -2.641450e+001  4.414509e+000
      vertex -1.470711e+001 -2.659143e+001  5.190432e+000
    endloop
  endfacet
  facet normal -9.368462e-001 -1.338481e-001 -3.231157e-001
    outer loop
      vertex -1.500000e+001 -2.500008e+001  9.996072e-001
      vertex -1.470711e+001 -2.659150e+001  8.096231e-001
      vertex -1.500000e+001 -2.641455e+001  1.585540e+000
    endloop
  endfacet
  facet normal -9.168194e-001 -1.234006e-001 -3.797559e-001
    outer loop
      vertex -1.500000e+001 -2.500008e+001  9.996072e-001
      vertex -1.470711e+001 -2.500010e+001  2.925004e-001
      vertex -1.470711e+001 -2.659150e+001  8.096231e-001
    endloop
  endfacet
  facet normal -8.984195e-001 -3.552670e-001  2.581236e-001
    outer loop
      vertex -1.500000e+001 -2.641450e+001  4.414509e+000
      vertex -1.470711e+001 -2.757500e+001  3.836703e+000
      vertex -1.470711e+001 -2.659143e+001  5.190432e+000
    endloop
  endfacet
  facet normal -8.909294e-001 -4.541418e-001  8.282535e-006
    outer loop
      vertex -1.500000e+001 -2.700042e+001  3.000034e+000
      vertex -1.470711e+001 -2.757503e+001  2.163386e+000
      vertex -1.470711e+001 -2.757500e+001  3.836703e+000
    endloop
  endfacet
  facet normal -9.455662e-001 -3.006560e-001  1.245409e-001
    outer loop
      vertex -1.500000e+001 -2.700042e+001  3.000034e+000
      vertex -1.470711e+001 -2.757500e+001  3.836703e+000
      vertex -1.500000e+001 -2.641450e+001  4.414509e+000
    endloop
  endfacet
  facet normal -8.984197e-001 -3.552752e-001 -2.581116e-001
    outer loop
      vertex -1.500000e+001 -2.641455e+001  1.585540e+000
      vertex -1.470711e+001 -2.659150e+001  8.096231e-001
      vertex -1.470711e+001 -2.757503e+001  2.163386e+000
    endloop
  endfacet
  facet normal -9.455665e-001 -3.006596e-001 -1.245304e-001
    outer loop
      vertex -1.500000e+001 -2.641455e+001  1.585540e+000
      vertex -1.470711e+001 -2.757503e+001  2.163386e+000
      vertex -1.500000e+001 -2.700042e+001  3.000034e+000
    endloop
  endfacet
  facet normal -3.665260e-001 -2.875033e-001  8.848732e-001
    outer loop
      vertex -1.400000e+001 -2.500000e+001  6.000393e+000
      vertex -1.470711e+001 -2.500000e+001  5.707500e+000
      vertex -1.400000e+001 -2.676358e+001  5.427389e+000
    endloop
  endfacet
  facet normal -3.665256e-001 -2.875031e-001  8.848734e-001
    outer loop
      vertex -1.400000e+001 -2.676358e+001  5.427389e+000
      vertex -1.470711e+001 -2.500000e+001  5.707500e+000
      vertex -1.470711e+001 -2.659143e+001  5.190432e+000
    endloop
  endfacet
  facet normal -3.665254e-001 -7.527087e-001  5.468900e-001
    outer loop
      vertex -1.400000e+001 -2.676358e+001  5.427389e+000
      vertex -1.470711e+001 -2.659143e+001  5.190432e+000
      vertex -1.400000e+001 -2.785355e+001  3.927216e+000
    endloop
  endfacet
  facet normal -3.665259e-001 -7.527087e-001  5.468897e-001
    outer loop
      vertex -1.400000e+001 -2.785355e+001  3.927216e+000
      vertex -1.470711e+001 -2.659143e+001  5.190432e+000
      vertex -1.470711e+001 -2.757500e+001  3.836703e+000
    endloop
  endfacet
  facet normal -3.665260e-001 -9.304078e-001  1.626913e-005
    outer loop
      vertex -1.400000e+001 -2.785355e+001  3.927216e+000
      vertex -1.470711e+001 -2.757500e+001  3.836703e+000
      vertex -1.400000e+001 -2.785358e+001  2.072882e+000
    endloop
  endfacet
  facet normal -3.665244e-001 -9.304084e-001  1.696858e-005
    outer loop
      vertex -1.400000e+001 -2.785358e+001  2.072882e+000
      vertex -1.470711e+001 -2.757500e+001  3.836703e+000
      vertex -1.470711e+001 -2.757503e+001  2.163386e+000
    endloop
  endfacet
  facet normal -3.665248e-001 -7.527277e-001 -5.468643e-001
    outer loop
      vertex -1.400000e+001 -2.785358e+001  2.072882e+000
      vertex -1.470711e+001 -2.757503e+001  2.163386e+000
      vertex -1.400000e+001 -2.676367e+001  5.726714e-001
    endloop
  endfacet
  facet normal -3.665269e-001 -7.527265e-001 -5.468646e-001
    outer loop
      vertex -1.400000e+001 -2.676367e+001  5.726714e-001
      vertex -1.470711e+001 -2.757503e+001  2.163386e+000
      vertex -1.470711e+001 -2.659150e+001  8.096231e-001
    endloop
  endfacet
  facet normal -3.665261e-001 -2.875335e-001 -8.848633e-001
    outer loop
      vertex -1.400000e+001 -2.676367e+001  5.726714e-001
      vertex -1.470711e+001 -2.659150e+001  8.096231e-001
      vertex -1.400000e+001 -2.500010e+001 -3.928021e-004
    endloop
  endfacet
  facet normal -3.665256e-001 -2.875338e-001 -8.848634e-001
    outer loop
      vertex -1.400000e+001 -2.500010e+001 -3.928021e-004
      vertex -1.470711e+001 -2.659150e+001  8.096231e-001
      vertex -1.470711e+001 -2.500010e+001  2.925004e-001
    endloop
  endfacet
  facet normal -3.826837e-001  7.260099e-006  9.238794e-001
    outer loop
      vertex -1.400000e+001 -2.500000e+001  6.000393e+000
      vertex -1.400000e+001  2.500000e+001  6.000000e+000
      vertex -1.470711e+001 -2.500000e+001  5.707500e+000
    endloop
  endfacet
  facet normal -3.826837e-001  7.260116e-006  9.238794e-001
    outer loop
      vertex -1.470711e+001 -2.500000e+001  5.707500e+000
      vertex -1.400000e+001  2.500000e+001  6.000000e+000
      vertex -1.470711e+001  2.499988e+001  5.707107e+000
    endloop
  endfacet
  facet normal -9.238794e-001  3.007242e-006  3.826837e-001
    outer loop
      vertex -1.470711e+001 -2.500000e+001  5.707500e+000
      vertex -1.470711e+001  2.499988e+001  5.707107e+000
      vertex -1.500000e+001 -2.500001e+001  5.000393e+000
    endloop
  endfacet
  facet normal -9.238794e-001  3.007235e-006  3.826837e-001
    outer loop
      vertex -1.500000e+001 -2.500001e+001  5.000393e+000
      vertex -1.470711e+001  2.499988e+001  5.707107e+000
      vertex -1.500000e+001  2.499999e+001  5.000000e+000
    endloop
  endfacet
  facet normal -8.918498e-001  4.140115e-001 -1.822042e-001
    outer loop
      vertex -1.500000e+001  2.594353e+001  3.671054e+000
      vertex -1.470711e+001  2.670603e+001  3.969971e+000
      vertex -1.470711e+001  2.617428e+001  2.761704e+000
    endloop
  endfacet
  facet normal -2.900997e-001  7.602344e-001 -5.812794e-001
    outer loop
      vertex -1.470711e+001  2.617428e+001  2.761704e+000
      vertex -1.400000e+001  2.688788e+001  3.342107e+000
      vertex -1.400000e+001  2.612916e+001  2.349799e+000
    endloop
  endfacet
  facet normal -4.628270e-001  3.141131e-001 -8.289295e-001
    outer loop
      vertex -1.470711e+001  2.617428e+001  2.761704e+000
      vertex -1.400000e+001  2.612916e+001  2.349799e+000
      vertex -1.470711e+001  2.493983e+001  2.293926e+000
    endloop
  endfacet
  facet normal -8.918497e-001  4.201645e-001  1.675287e-001
    outer loop
      vertex -1.500000e+001  2.595452e+001  4.295525e+000
      vertex -1.470711e+001  2.621711e+001  5.196195e+000
      vertex -1.470711e+001  2.670603e+001  3.969971e+000
    endloop
  endfacet
  facet normal -9.326445e-001  3.607410e-001 -6.346522e-003
    outer loop
      vertex -1.500000e+001  2.595452e+001  4.295525e+000
      vertex -1.470711e+001  2.670603e+001  3.969971e+000
      vertex -1.500000e+001  2.594353e+001  3.671054e+000
    endloop
  endfacet
  facet normal -2.631481e-001  9.646062e-001 -1.697181e-002
    outer loop
      vertex -1.470711e+001  2.670603e+001  3.969971e+000
      vertex -1.400000e+001  2.690986e+001  4.591049e+000
      vertex -1.400000e+001  2.688788e+001  3.342107e+000
    endloop
  endfacet
  facet normal -5.101016e-001  7.872479e-001 -3.464635e-001
    outer loop
      vertex -1.470711e+001  2.670603e+001  3.969971e+000
      vertex -1.400000e+001  2.688788e+001  3.342107e+000
      vertex -1.470711e+001  2.617428e+001  2.761704e+000
    endloop
  endfacet
  facet normal -8.993824e-001  1.691926e-001  4.030945e-001
    outer loop
      vertex -1.500000e+001  2.559285e+001  4.804716e+000
      vertex -1.470711e+001  2.499988e+001  5.707107e+000
      vertex -1.470711e+001  2.621711e+001  5.196195e+000
    endloop
  endfacet
  facet normal -9.290687e-001  3.015744e-001  2.142063e-001
    outer loop
      vertex -1.500000e+001  2.559285e+001  4.804716e+000
      vertex -1.470711e+001  2.621711e+001  5.196195e+000
      vertex -1.500000e+001  2.595452e+001  4.295525e+000
    endloop
  endfacet
  facet normal -5.101033e-001  7.989467e-001  3.185574e-001
    outer loop
      vertex -1.470711e+001  2.621711e+001  5.196195e+000
      vertex -1.400000e+001  2.690986e+001  4.591049e+000
      vertex -1.470711e+001  2.670603e+001  3.969971e+000
    endloop
  endfacet
  facet normal -9.166179e-001  1.250705e-001  3.796959e-001
    outer loop
      vertex -1.500000e+001  2.499999e+001  5.000000e+000
      vertex -1.470711e+001  2.499988e+001  5.707107e+000
      vertex -1.500000e+001  2.559285e+001  4.804716e+000
    endloop
  endfacet
  facet normal -3.661692e-001  2.596831e-001 -8.935797e-001
    outer loop
      vertex -1.400000e+001  2.492965e+001  2.001209e+000
      vertex -1.470711e+001  2.493983e+001  2.293926e+000
      vertex -1.400000e+001  2.612916e+001  2.349799e+000
    endloop
  endfacet
  facet normal -3.568497e-001  3.615432e-001  8.613621e-001
    outer loop
      vertex -1.470711e+001  2.499988e+001  5.707107e+000
      vertex -1.400000e+001  2.500000e+001  6.000000e+000
      vertex -1.470711e+001  2.621711e+001  5.196195e+000
    endloop
  endfacet
  facet normal -4.762201e-001  2.749392e-001  8.352382e-001
    outer loop
      vertex -1.470711e+001  2.621711e+001  5.196195e+000
      vertex -1.400000e+001  2.500000e+001  6.000000e+000
      vertex -1.400000e+001  2.618651e+001  5.609432e+000
    endloop
  endfacet
  facet normal -2.901016e-001  7.802101e-001  5.541779e-001
    outer loop
      vertex -1.470711e+001  2.621711e+001  5.196195e+000
      vertex -1.400000e+001  2.618651e+001  5.609432e+000
      vertex -1.400000e+001  2.690986e+001  4.591049e+000
    endloop
  endfacet
  facet normal -9.122130e-001  1.451829e-001 -3.831308e-001
    outer loop
      vertex -1.470711e+001  2.493983e+001  2.293926e+000
      vertex -1.500000e+001  2.496442e+001  3.000605e+000
      vertex -1.470711e+001  2.617428e+001  2.761704e+000
    endloop
  endfacet
  facet normal -8.884746e-001  1.280697e-001 -4.406937e-001
    outer loop
      vertex -1.470711e+001  2.617428e+001  2.761704e+000
      vertex -1.500000e+001  2.496442e+001  3.000605e+000
      vertex -1.500000e+001  2.556417e+001  3.174900e+000
    endloop
  endfacet
  facet normal -9.290687e-001  2.938529e-001 -2.246815e-001
    outer loop
      vertex -1.470711e+001  2.617428e+001  2.761704e+000
      vertex -1.500000e+001  2.556417e+001  3.174900e+000
      vertex -1.500000e+001  2.594353e+001  3.671054e+000
    endloop
  endfacet
  facet normal -3.824345e-001 -6.813794e-002 -9.214668e-001
    outer loop
      vertex -1.400000e+001  2.492965e+001  2.001209e+000
      vertex -1.400000e+001  2.485181e+001  2.006965e+000
      vertex -1.470711e+001  2.493983e+001  2.293926e+000
    endloop
  endfacet
  facet normal -3.824345e-001 -6.813765e-002 -9.214668e-001
    outer loop
      vertex -1.470711e+001  2.493983e+001  2.293926e+000
      vertex -1.400000e+001  2.485181e+001  2.006965e+000
      vertex -1.470711e+001  2.488479e+001  2.297995e+000
    endloop
  endfacet
  facet normal -9.237763e-001 -2.823876e-002 -3.818900e-001
    outer loop
      vertex -1.470711e+001  2.493983e+001  2.293926e+000
      vertex -1.470711e+001  2.488479e+001  2.297995e+000
      vertex -1.500000e+001  2.496442e+001  3.000605e+000
    endloop
  endfacet
endsolid CATIA STL
